<svg width="722" height="897" xmlns="http://www.w3.org/2000/svg">
 <title>BackBone.JS</title>
 <g>
  <title>Layer 1</title>
  <g fill-rule="evenodd" fill="#D8D8D8" id="Page 1">
   <g id="BackBone.JS">
    <path fill="#002A41" stroke="rgb(132,132,132)" id="Path" d="m0,0l0,485l361,205.785034l0,-139.882263l-241.503906,-137.667267l0,-216.235504l241.503906,137.667267l0,-128.882248l-361,-205.785019zm0,0"/>
    <path fill="#0071B5" stroke="rgb(132,132,132)" id="Path" d="m722,0l0,485l-361,205.785034l0,-139.882263l241.503906,-137.667267l0,-216.235504l-241.503906,137.667267l0,-128.882248l361,-205.785019zm0,0"/>
    <path fill="#0071B5" stroke="rgb(132,132,132)" id="Path" d="m0,896.785034l0,-485l361,-205.785034l0,139.882263l-241.503906,137.667267l0,205.235504l241.503906,-137.667297l0,139.882263l-361,205.785034zm0,0"/>
    <path fill="#002A41" stroke="rgb(132,132,132)" id="Path" d="m722,896.785034l0,-485l-361,-205.785034l0,139.882263l241.503906,137.667267l0,205.235504l-241.503906,-137.667297l0,139.882263l361,205.785034zm0,0"/>
   </g>
  </g>
 </g></svg>