<svg version="1.1" id="Layer_1" xmlns="http://www.w3.org/2000/svg" xmlns:xlink="http://www.w3.org/1999/xlink" x="0px" y="0px"
	  width="50" height="50" xml:space="preserve">
<g>
	<path fill="#FFFFFF" d="M35.602,20.938c0.115-2.682-0.667-4.836-1.723-6.562c-1.056-1.726-2.973-3.427-5.081-3.234
		c-1.262,0.114-2.015,0.589-2.303,1.266c-0.286,0.676-0.565,2.203-0.565,2.849c0,1.165,0,16.136,0,16.136
		c3.772-0.41,6.097-2.181,7.87-4.981C34.792,24.847,35.522,22.767,35.602,20.938z"/>
	<path fill="#FFFFFF" d="M24.777,1C11.094,1,0,11.923,0,25.396c0,12.516,9.538,22.793,21.864,24.198
		c0.611,0.031,0.963-0.028,1.252-0.274c0.234-0.198,0.338-0.531,0.338-0.816l0.013-14.539c-6.672-0.693-12.009-6.194-11.926-12.947
		c0.078-6.451,4.521-11.618,10.401-12.834c0.157-0.033,0.262-0.062,0.345,0.02c0.091,0.091,0.039,0.311,0.039,0.311l-0.444,2.161
		c0,0-0.03,0.135-0.071,0.176c-0.041,0.042-0.093,0.06-0.152,0.08c-2.555,0.799-4.866,2.523-5.981,4.616
		c-0.929,1.745-1.718,3.048-1.718,5.422c0,5.115,4.427,9.799,9.142,10.434V15.257c0-1.685,0.271-3.655,1.263-5.003
		C25.14,9.206,26.58,8.56,28.707,8.56c3.062,0,6.771,2.245,8.623,7.097c0.558,1.468,0.913,3.325,0.907,5.332
		c-0.017,6.733-5.254,12.244-11.896,12.967l-0.006,14.549c0,0.385,0.124,0.67,0.347,0.843c0.268,0.208,0.495,0.294,1.245,0.229
		c0.279-0.023,0.809-0.092,1.037-0.131c11.688-1.958,20.589-11.981,20.589-24.048C49.553,11.922,38.461,1,24.777,1z"/>
</g>
</svg>
