<svg width="219" height="93" xmlns="http://www.w3.org/2000/svg">
 <g>
  <title>Layer 1</title>
  <path id="svg_1" d="m147.600006,31.899994c1.600006,2 3.200012,4.799988 3.200012,8.799988c0,9.700012 -7.600006,15.300018 -18.5,15.300018c-2.800018,0 -5.300018,-0.300018 -6.900024,-0.800018l-2.899994,4.600006l8.5,0.5c15.100006,1 23.899994,1.399994 23.899994,13c0,10 -8.799988,15.700012 -23.899994,15.700012c-15.799988,0 -21.799988,-4 -21.799988,-10.900024c0,-3.899994 1.699982,-6 4.799988,-8.899994c-2.899994,-1.199982 -3.799988,-3.399994 -3.799988,-5.699982c0,-1.900024 1,-3.700012 2.5,-5.300018c1.600006,-1.699982 3.299988,-3.299988 5.399994,-5.199982c-4.299988,-2.100006 -7.5,-6.600006 -7.5,-13.100006c0,-10 6.600006,-16.899994 19.899994,-16.899994c3.700012,0 6,0.299988 8,0.899994l17,0l0,7.399994l-7.899994,0.600006zm-25.700012,39.600006c-1.100006,1.399994 -2.299988,2.899994 -2.299988,4.600006c0,3.5 4.399994,4.5 10.5,4.5c5,0 11.899994,-0.399994 11.899994,-5c0,-2.800018 -3.300018,-3 -7.5,-3.200012l-12.600006,-0.899994zm9.600006,-39.899994c-4.800018,0 -8.399994,2.399994 -8.399994,8c0,4.300018 2.399994,7.200012 8.099976,7.200012c4.900024,0 8.200012,-2.899994 8.200012,-7.399994c0,-5.100037 -3,-7.800018 -7.899994,-7.800018z" fill="#ffffff"/>
  <path id="svg_2" d="m159.700012,68.299988l0,-6.799988l4.399994,-0.600006c1.200012,-0.199982 1.400024,-0.399994 1.400024,-1.699982l0,-25.700012c0,-1 -0.300018,-1.600006 -1.100006,-1.799988l-4.700012,-1.700012l1,-7l18,0l0,36.100006c0,1.399994 0.100006,1.600006 1.399994,1.699982l4.400024,0.600006l0,6.899994l-24.800018,0zm11.299988,-52.299988c-5,0 -7.800018,-2.899994 -7.800018,-7.799988c0,-5 2.900024,-7.700012 7.800018,-7.700012c5,0 7.899994,2.700012 7.899994,7.700012c0,5 -2.899994,7.799988 -7.899994,7.799988z" fill="#ffffff"/>
  <path id="svg_3" d="m219,65c-3.700012,1.799988 -9.200012,3.5 -14.200012,3.5c-10.399994,0 -14.299988,-4.200012 -14.299988,-14l0,-22.799988c0,-0.5 0,-0.900024 -0.700012,-0.900024l-6.100006,0l0,-7.699982c7.700012,-0.899994 10.700012,-4.700012 11.700012,-14.200012l8.299988,0l0,12.399994c0,0.600006 0,0.900024 0.700012,0.900024l12.299988,0l0,8.699982l-13,0l0,20.800018c0,5.099976 1.200012,7.099976 5.900024,7.099976c2.399994,0 5,-0.599976 7,-1.399994l2.399994,7.600006z" fill="#ffffff"/>
  <g id="svg_4">
   <path id="svg_5" d="m90,42.100006l-39.800003,-39.799988c-2.300003,-2.300018 -6,-2.300018 -8.300003,0l-8.300003,8.299988l10.5,10.5c2.400009,-0.799988 5.200012,-0.299988 7.200012,1.700012c2,2 2.5,4.799988 1.699997,7.199982l10.099991,10.100006c2.400009,-0.799988 5.300003,-0.299988 7.200012,1.700012c2.699997,2.699982 2.699997,7.100006 0,9.899994c-2.700012,2.700012 -7.100006,2.700012 -9.900009,0c-2.099991,-2.100006 -2.599991,-5.100006 -1.5,-7.600006l-9.399994,-9.399994l0,24.799988c0.700012,0.300018 1.300003,0.800018 1.800003,1.300018c2.699997,2.699982 2.699997,7.100006 0,9.899994c-2.700012,2.700012 -7.199997,2.700012 -9.899994,0c-2.699997,-2.700012 -2.699997,-7.200012 0,-9.899994c0.699997,-0.700012 1.5,-1.200012 2.300003,-1.5l0,-25c-0.800003,-0.300018 -1.600006,-0.800018 -2.300003,-1.5c-2.100006,-2.100006 -2.600006,-5.100006 -1.5,-7.600006l-10.300003,-10.299988l-27.300003,27.299988c-2.300003,2.299988 -2.300003,6 0,8.299988l39.800003,39.800018c2.300003,2.299988 6,2.299988 8.300003,0l39.599991,-39.600006c2.300018,-2.600006 2.300018,-6.300018 0,-8.600006z" fill="#f05133"/>
  </g>
 </g>
</svg>