<svg width="302" height="335" xmlns="http://www.w3.org/2000/svg">
 <g>
  <title>Layer 1</title>
  <g id="Layer_1_1_">
   <g id="svg_1">
    <path fill="#FBA919" d="m46.891998,81.418999c0,0 5.737,22.126999 6.555,29.503998c0.820999,7.375 -14.750999,23.765007 -14.750999,31.961006c0,8.195999 3.274002,22.946991 21.306,30.32399c18.031998,7.376007 20.487999,26.223999 20.487999,37.700012c0,11.472992 -6.555,33.597992 -6.555,33.597992s-4.096001,54.908005 18.028999,64.741989c22.125008,9.833008 17.209999,9.833008 22.125008,9.833008c4.916,0 40.97699,14.755005 62.28299,9.018005c21.307999,-5.737 27.041,-12.291992 27.041,-12.291992s21.309998,1.636993 27.865005,-17.21402c6.559006,-18.846985 10.654007,-58.182999 8.194992,-76.213989c-2.458984,-18.031998 -5.735992,-41.794006 9.014008,-49.990997c14.755005,-8.195999 30.324005,-18.027008 27.86499,-26.223999c-2.458984,-8.195999 -15.567993,-19.669998 -15.567993,-19.669998s-3.278992,-20.486 -0.821991,-25.404007c2.457001,-4.917 17.209991,-17.212997 9.014008,-26.225998c-8.19101,-9.014 -22.947021,-9.014 -22.947021,-9.014l-18.847,1.637001c0,0 -31.960999,-28.681999 -73.757004,-27.042999c-41.793991,1.639 -68.020996,27.042999 -68.020996,27.042999s-13.93,-4.917 -26.223999,0c-12.293991,4.918999 -14.744995,-0.000999 -12.287994,13.931999z" id="svg_2"/>
    <path fill="#E78724" d="m121.774994,203.436996c0,0 -16.228996,24.815002 -28.133003,42.425003c-1.841988,2.723999 11.904007,2.912994 11.904007,2.912994l16.228996,-45.337997z" id="svg_3"/>
    <path fill="#E78724" d="m129.501999,151.988998c0,0 -4.891998,12.205002 -7.572006,18.675003c-2.908997,7.033997 -14,10.53299 -14,10.53299s5.749008,-6.029999 5.749008,-21.306c0,-6.408997 8.274002,-8.957001 8.274002,-8.957001l7.548996,1.055008z" id="svg_4"/>
    <path fill="#E78724" d="m124.559998,158.889999c0,0 -10.022995,11.931 -28.633011,5.248993c-18.613983,-6.679993 -20.521988,-30.544998 -20.521988,-37.227005c0,-6.681984 35.317001,6.682007 40.091003,9.546005s13.835999,14.317001 9.063995,22.432007z" id="svg_5"/>
    <path fill="#E78724" d="m54.261002,31.399c0,0 17.18,-3.343 28.632996,5.726c11.458,9.067001 14.794006,16.228001 14.794006,16.228001l-19.305,15.302998c0,0 -9.328003,-4.324997 -12.192001,-16.734997c-2.862999,-12.409 -0.954002,-18.135002 -11.93,-20.522001z" id="svg_6"/>
    <path fill="#E78724" d="m119.548996,124.427002c-7.397003,-10.5 -19.586998,-15.080002 -29.32,-15.838989c-16.595993,-1.298012 -24.474998,4.569 -24.474998,4.569s27.18,1.150986 35.014,11.439987c14.583992,19.150009 35.859993,20.705994 39.262001,16.5c-3.934006,0.195999 -8.262009,-1.752991 -12.893997,-6.132996c-2.893997,-2.740005 -5.240005,-7.204002 -7.587006,-10.537003z" id="svg_7"/>
    <path fill="#E78724" d="m73.666,161.554001c0,0 -30.156998,-10.367004 -24.425003,-20.865005c5.726006,-10.500992 1.167999,-16.221992 1.167999,-16.221992s-16.838997,12.57 -12.547997,25.931999c2.637001,8.201996 7.061012,14.139999 31.353996,25.524994c11.652,21.643005 2.406006,60.600006 2.960007,60.783005c0.922997,0.307007 16.360001,-7.630005 15.306,-44.076996c-0.320999,-11.192001 -1.216003,-26.471008 -13.815002,-31.076004z" id="svg_8"/>
    <path fill="#E78724" d="m113.184006,50.074001c-12.645004,6.424 -29.968002,15.369999 -29.968002,15.369999l6.817993,3.411003c-0.650993,1.053993 -0.964989,1.682999 -0.964989,1.682999l6.997993,3.181999c0,0 17.083008,12.375 27.550003,20.331001c-3.490005,-10.746002 -13.733994,-27.628006 -13.733994,-27.628006s-2.903,-7.756996 3.300995,-16.348995z" id="svg_9"/>
    <path fill="#E78724" d="m155.190994,311.93399c-38.865997,0 -52.030991,-19.730988 -52.030991,-19.730988l6.07399,14.790985c2.296005,6.398987 26.78801,26.311005 45.897995,26.311005" id="svg_10"/>
    <path fill="#E78724" d="m107.419006,278.871002c0,0 3.576004,21.854004 17.893997,21.854004c12.167007,0 15.751999,-18.459991 15.751999,-22.274994l-33.645996,0.42099z" id="svg_11"/>
    <path fill="#E78724" d="m83.592003,245.912003c1.272011,-3.501999 5.725998,-17.660004 7.156998,-30.544998c1.714996,-15.432007 1.089996,-38.003006 1.089996,-38.003006s-3.819984,14.794998 -7.160995,17.186005c-3.339005,2.384995 -9.544998,18.610001 -9.544998,18.610001s-3.32399,24.156006 -4.905991,32.275009c4.377991,0.876984 8.063988,-1.703018 13.36499,0.47699z" id="svg_12"/>
    <path fill="#E78724" d="m49.015999,150.162003c0,0 8.111,-2.865997 10.5,-20.522003c2.385002,-17.659996 -2.865997,-32.931992 -2.865997,-32.931992s0.476997,24.339989 -2.385002,29.113998c-2.865997,4.770996 -5.249001,6.203003 -8.592003,12.408997c-3.342995,6.207001 1.431,10.020996 3.343002,11.931z" id="svg_13"/>
    <path fill="#87CCEE" d="m92.063004,69.060997" id="svg_14"/>
    <path fill="#FDC168" d="m58.700996,35.576l-1.655998,-1.049c-4.882996,0.165001 1.655998,1.049 1.655998,1.049z" id="svg_15"/>
    <path fill="#FBA919" d="m119.785995,44.846001c0,0 -7.634003,-1.271999 -11.453995,-6.998001c-3.820007,-5.728001 -14.636009,-17.184 -31.878998,-17.312c-17.242004,-0.129 -34.301003,4.583 -34.301003,4.583l14.890999,9.409c1.574997,-0.050999 4.328987,-0.029999 8.882988,0.122002c18.688011,0.620998 21.56501,19.105999 21.56501,19.105999l65.862,-9.069" id="svg_16"/>
    <path fill="#FFFFFF" d="m126.151001,146.942001c0,0 -8.910004,8.910004 -22.593002,6.044006c-13.682999,-2.862 -21.957001,-8.908005 -22.593002,-19.409012c-0.635994,-10.499992 2.866005,-14.635994 2.866005,-14.635994s15.270996,4.776001 22.59301,11.140007c7.317993,6.361984 12.725983,16.543991 19.72699,16.860992z" id="svg_17"/>
    <path fill="#C9C9C9" d="m115.367996,143.759003c0,0 -7.727005,3.529999 -16.363998,0.654999c-11.306,-3.770996 -12.058998,-15.529007 -12.058998,-15.529007s-6.936012,20.354004 12.509987,24.272003c15.597015,3.141998 24.821014,-5.895996 24.821014,-5.895996l-8.908005,-3.501999z" id="svg_18"/>
    <path fill="#463014" d="m124.248993,257.839996" id="svg_19"/>
    <path fill="#463014" d="m120.858994,40.528c-0.830994,-17.455999 13.479004,-31.359 18.436996,-31.951c0.274002,2.958 -0.276001,14.496 4.681,18.044001c1.443008,-9.424 6.323013,-19.814 25.593018,-26.621c-4.126999,10.946 -0.550995,20.115 1.151993,24.365c13.159012,-11.944 22.025009,-9.969999 22.025009,-9.969999s-9.143005,15.777 -5.567001,26.128998c-26.416,-2.070999 -66.192001,2.807003 -66.321014,0.004002z" id="svg_20"/>
    <path fill="#463014" d="m64.857002,67.116997c-6.303001,-5.228996 -1.605003,-10.081997 -2.102989,-16.023006c-0.271011,-3.160992 -0.521011,-6.14399 -1.563011,-7.78899c-5.800003,-9.159 -19.483002,-11.938 -19.620003,-11.967001l-6.422001,-1.257999l4.251003,-4.973c0.550999,-0.644011 18.008995,-17.30101 45.025002,-8.57901c18.897995,6.094999 32.888,26.76301 33.408997,27.598009l-9.475998,4.45599c-0.110992,-0.175999 -11.171005,-19.602999 -27.383995,-24.830999c-13.10601,-4.229 -25.185005,-0.20599 -30.359009,2.431c5.5,2.196011 12.69101,6.195002 17.02401,13.036001c2.043999,3.23101 2.389,7.299 2.722,11.23801c0.438995,5.215 0.849991,10.137989 4.687996,13.326l-10.192001,3.334995z" id="svg_21"/>
    <path fill="#463014" d="m48.023003,143.449997c0,0 7.940994,-9.847 10.292999,-29.007996c0.924011,-7.547005 -0.716995,-22.432999 -3.343002,-28.160004c0.476997,14.079002 -3.101997,28.160004 -3.101997,28.160004s-2.413002,26.143997 -3.848,29.007996z" id="svg_22"/>
    <path fill="#463014" d="m89.896004,57.172001c-0.00399,-0.021 -2.547997,-11.138 -9.60099,-16.75c-9.949013,-7.914001 -22.097,-3.704002 -22.214012,-3.667l-1.764,-5.449001c0.588005,-0.191 14.473,-4.566 27.268997,4.429001c12.873001,9.045998 14.418015,17.245998 14.552002,18.152l-8.241997,3.285z" id="svg_23"/>
    <path fill="#463014" d="m72.963997,136.388c0,0 -4.166,-5.964005 -3.417,-12.523003c0.373001,-3.238998 1.874001,-6.563995 4.554001,-7.743996c4.979996,-2.188004 7.186989,3.457001 7.186989,3.457001s-7.008987,1.729996 -8.32399,16.809998z" id="svg_24"/>
    <path fill="#463014" d="m124.248993,257.839996" id="svg_25"/>
    <path fill="#463014" d="m118.707001,145.477997c0.173996,0.324997 0.263,0.507004 0.263,0.507004s-12.994003,9.751999 -26.311005,-0.143997c-7.127998,-5.302002 -6.454994,-18.417 -4.270996,-23.979004c5.679001,1.286987 10.496002,3.607002 14.522003,6.315994c-5.088005,-4.541 -9.542007,-7.883995 -9.530006,-7.961006l-5.782997,-1.637001l-11.239998,-3.853989c-0.144005,0.857002 -4.244003,20.074005 7.589996,33.167999c5.245003,5.806 29.834999,18.807999 41.510002,-3.423996l-6.75,1.007996z" id="svg_26"/>
    <path fill="#463014" d="m117.490005,146.906998c7.315994,11.134995 25.774994,4.772003 25.457001,-7c0,0 -12.334,6.807007 -23.231003,-5.725998c-6.362,-7.317001 -26.748001,-27.491997 -54.393997,-20.787003c19.091995,4.198006 44.366989,21.641006 52.167999,33.513z" id="svg_27"/>
    <g id="svg_28">
     <path fill="#463014" d="m124.248993,257.839996" id="svg_29"/>
    </g>
    <path fill="#463014" d="m62.738998,178.332993c1.760002,1.016998 7.967003,7.445007 7.971001,17.059006c0,4.820999 -0.479996,29.039993 -2.865997,43.835999c3.588997,2.332001 6.088997,2.827988 9.663002,5.204987c1.788994,-17.135986 3.071999,-41.971985 2.473999,-51.997986c-0.684006,-11.429001 -6.803001,-19.099014 -12.478004,-22.37001c-1.777,-1.022003 -3.633995,-2.026993 -5.503998,-3.037994c-9.720001,-5.251999 -19.771004,-10.684998 -19.771004,-19.962006c0,-7.257004 2.821007,-9.526993 5.808006,-11.932999l0.321999,-0.261002c1.981995,-1.600998 4.224998,-3.416992 5.554001,-6.399002c3.625999,-8.152992 4.218994,-28.920998 0,-34.192993c-2.103004,-2.626999 -7.737999,-11.460999 -6.118004,-17.397003c0.617004,-2.265999 2.043999,-3.945 4.367004,-5.135002c2.458,-1.258995 5.778999,-1.896996 9.866997,-1.896996c8.029999,0 16.935997,2.444 21.530998,3.898987c16.418999,5.20401 36.230995,20.208015 41.909996,24.683014c0.16301,0.125 0.259003,0.197998 0.276001,0.209999l3.634003,2.527l-2.272995,-3.803001c-0.139999,-0.237 -14.534012,-23.904999 -40.271004,-32.583c-5.006996,-1.688 -14.844002,-4.521 -24.511002,-4.521c-5.755997,0 -10.639999,1.005001 -14.506996,2.985001c-4.713005,2.410999 -7.905003,6.257999 -9.231003,11.120998c-3.25,11.920998 7.334999,25.194 7.695999,25.618004c1.234001,2.202995 1.757004,18.206001 -1.093994,24.611c-0.392006,0.883995 -1.467003,1.752998 -2.828003,2.850998c-0.425999,0.345001 -0.903,0.702995 -1.408001,1.086006c-4.021999,3.035995 -10.104,7.622986 -10.104,18.195984c0,14.46701 14.662003,22.311005 26.445,28.618011c1.932999,1.040009 3.778,2.024002 5.445999,2.985001z" id="svg_30"/>
    <g id="svg_31">
     <g id="svg_32">
      <path fill="#463014" d="m64.857002,67.116997c-6.303001,-5.228996 -1.605003,-10.081997 -2.102989,-16.023006c-0.271011,-3.160992 -0.521011,-6.14399 -1.563011,-7.78899c-5.800003,-9.159 -19.483002,-11.938 -19.620003,-11.967001l-6.422001,-1.257999l4.251003,-4.973c0.550999,-0.644011 18.008995,-17.30101 45.025002,-8.57901c18.897995,6.094999 32.888,26.76301 33.408997,27.598009l-9.475998,4.45599c-0.110992,-0.175999 -11.171005,-19.602999 -27.383995,-24.830999c-13.10601,-4.229 -25.185005,-0.20599 -30.359009,2.431c5.5,2.196011 12.69101,6.195002 17.02401,13.036001c2.043999,3.23101 2.389,7.299 2.722,11.23801c0.438995,5.215 0.849991,10.137989 4.687996,13.326l-10.192001,3.334995z" id="svg_33"/>
     </g>
     <g id="svg_34">
      <path fill="#463014" d="m64.652,68.188004l-0.406998,-0.33699c-4.674004,-3.879013 -3.845001,-7.700012 -3.042,-11.397015c0.364998,-1.705997 0.75,-3.469997 0.593994,-5.278999c-0.254997,-3.042 -0.5,-5.911999 -1.416,-7.361c-5.522995,-8.719997 -18.869995,-11.514 -19.001995,-11.541l-8.021,-1.572998l5.316998,-6.216002c0.097,-0.115999 11.306004,-11.430999 30.289997,-11.430999c5.175003,0 10.477005,0.860999 15.752007,2.565c19.723999,6.360001 33.794991,27.789001 33.928001,28.000999l0.569,0.91l-11.209,5.271999l-0.449997,-0.713997c-1.206009,-2.056004 -11.834,-19.583002 -26.869011,-24.433002c-3.693001,-1.191999 -7.583,-1.793999 -11.55999,-1.793999c-7.203011,0 -13.043999,1.962999 -16.152,3.281c5.194,2.338999 11.492996,6.275999 15.478996,12.561998c2.167,3.424 2.517998,7.609001 2.862,11.652c0.422005,5.028 0.820999,9.756001 4.348,12.684002l1.331001,1.103996l-12.342003,4.045006z" id="svg_35"/>
     </g>
    </g>
    <g id="svg_36">
     <g id="svg_37">
      <path fill="#463014" d="m89.896004,57.172001c-0.00399,-0.021 -2.547997,-11.138 -9.60099,-16.75c-9.949013,-7.914001 -22.097,-3.704002 -22.214012,-3.667l-1.764,-5.449001c0.588005,-0.191 14.473,-4.566 27.268997,4.429001c12.873001,9.045998 14.418015,17.245998 14.552002,18.152l-8.241997,3.285z" id="svg_38"/>
     </g>
     <g id="svg_39">
      <path fill="#463014" d="m89.211998,58.472l-0.248001,-1.094002c-0.025993,-0.106998 -2.520996,-10.843998 -9.265999,-16.206997c-3.844002,-3.061001 -8.479996,-4.615002 -13.771011,-4.615002c-4.12999,0 -7.19899,0.986 -7.533989,1.102001l-0.91201,0.302998l-2.36599,-7.268999l0.907005,-0.292999c0.406998,-0.129 4.091995,-1.278 9.305,-1.278c6.876999,0 13.378998,2.018 18.810997,5.831999c13.195,9.273003 14.806,17.848 14.944,18.794003l0.115997,0.747997l-9.986,3.977001zm-23.283997,-23.821999c5.652,0 10.829002,1.737999 14.960999,5.023998c5.988998,4.77 8.806,13.191002 9.657997,16.209999l6.492004,-2.586998c-0.588005,-2.292 -3.176003,-9.171001 -14,-16.780003c-5.179001,-3.639999 -11.136002,-5.483997 -17.710999,-5.483997c-3.608002,0 -6.411003,0.573999 -7.796005,0.924l1.171005,3.618999c1.357994,-0.365002 3.971001,-0.925999 7.224998,-0.925999z" id="svg_40"/>
     </g>
    </g>
    <path fill="#463014" d="m124.714996,295.481995l0,0c-2.820007,0 -5.697998,-1.02301 -7.692993,-2.75c-1.527008,-1.31601 -6.69101,-6.05899 -8.968002,-11.869995c-0.850006,-2.173004 -0.659012,-3.911011 0.57399,-5.162018c0.850006,-0.856995 2.613998,-1.881989 6.195007,-1.881989l2.548004,-0.003998c3.035995,-0.002991 8.147995,-0.002991 12.516998,-0.002991l4.188995,0c2.723999,0 4.677002,0.588989 5.800003,1.737c1.442001,1.481995 0.979996,3.367004 0.576996,4.358978c-0.701996,1.738007 -3.606995,7.394012 -8.524994,12.652008c-1.761002,1.884003 -4.324005,2.923004 -7.214005,2.923004z" id="svg_41"/>
    <path fill="#463014" d="m127.671005,147.561996l-10.182007,-0.654999c0,0 2.603012,4.587997 4.289001,10.522003c1.904007,6.71199 -1.740997,16.520996 -1.740997,16.520996s13.576004,-15.369995 7.634003,-26.388z" id="svg_42"/>
    <g id="svg_43">
     <path fill="#463014" d="m114.960999,322.367004c-36.238998,-2.785004 -48.988998,-37.027985 -48.988998,-44.160004l9.463997,0.003998l-4.731995,-0.003998l4.731995,0c0.047005,3.083008 9.678001,32.375 40.250008,34.726013l-0.725006,9.43399z" id="svg_44"/>
    </g>
    <path fill="#FFFFFF" d="m104.777,261.015991c-0.566002,-3.27301 -0.625,-6.376999 0.066002,-9.427002c-2.754005,-2.069992 -7.695999,-2.839005 -11.403999,-4.041c-3.032005,-1.918991 -18.548004,1.966995 -29.805,-11.655991c-14.104004,-17.059006 -11.136002,-27.244003 -11.136002,-27.244003c-3.615997,4.01799 -7.121002,2.487 -12.632999,21.220993c-5.52,18.738007 2.591,31.800995 17.707996,44.915009c7.141998,6.195007 17.237999,8.747009 25.922005,9.723999c-2.909004,-2.92099 4.969009,-3.213013 10.398994,-5.244995c-0.432999,-4.384003 0.292,-8.640015 3.561005,-12.067017c1.971001,-2.065979 4.506996,-3.300995 7.138,-4.285004c0.146996,-0.339996 0.270996,-0.653992 0.410995,-0.97998c-0.086998,-0.298004 -0.171997,-0.598999 -0.226997,-0.915009z" id="svg_45"/>
    <path fill="#C9C9C9" d="m93.820999,279.148987c-0.313995,-0.920013 -0.551003,-1.858002 -0.783997,-2.802002c-0.250999,-1.031006 -1.500999,-3.951996 0.040001,-0.617004c-0.396004,-0.854004 -0.655006,-1.734009 -0.846001,-2.621002c-24.482002,-0.031006 -45.781006,-16.839996 -41.666,-52.178986c-3.205002,-4.255005 -7.693016,8.579987 -7.693016,8.579987s-12.255985,35.588013 19.39801,49.381012c10.547005,4.600006 19.868004,7.897003 22.067001,6.56601c4.581001,0.931 8.716003,-2.263 10.266998,-4.363007c-0.290993,-0.644989 -0.556,-1.290985 -0.782997,-1.945007z" id="svg_46"/>
    <path fill="#463014" d="m104.335999,255.891998c0.038002,-2.983002 0.647003,-5.871994 2.089005,-8.751007c0.100998,-0.197998 0.218002,-0.388 0.326004,-0.580994c-9.421005,-0.080994 -20.271004,-0.983002 -29.51001,-4.681c-10.154999,-4.061996 -22.857994,-17.959 -25.041,-34.287003c0,0 -19.124996,14.758011 -13.504997,46.346008c5.275002,29.662003 30.096001,39.331985 58.403999,40.968002c0.014999,-0.192017 -3.184006,-6.800018 -2.172997,-10.845001c-16.074005,1.167999 -34.049004,-5.041992 -42.726006,-19.320007c-7.944,-13.067993 -5.716003,-35.378998 -2.451004,-38.647995c7.964005,25.128998 36.62001,30.236984 54.587006,29.798996z" id="svg_47"/>
    <path fill="#463014" d="m155.190994,294.838989" id="svg_48"/>
    <path fill="#463014" d="m107.302002,237.901993c-5.094002,14.949005 -15.499001,27.047012 -15.499001,27.047012s14.312996,-0.651001 15.103004,-3.184021c0.584991,-1.867004 12.923996,-30.751984 17.660004,-64.588989c-4.455017,7.319 -16.828003,39.445999 -17.264008,40.725998z" id="svg_49"/>
    <path fill="#E78724" d="m188.393005,203.436996c0,0 16.225006,24.815002 28.132996,42.425003c1.84201,2.723999 -11.90799,2.912994 -11.90799,2.912994l-16.225006,-45.337997z" id="svg_50"/>
    <path fill="#E78724" d="m180.664001,151.988998c0,0 4.893005,12.205002 7.569,18.675003c2.908997,7.033997 13.998993,10.53299 13.998993,10.53299s-5.748001,-6.029999 -5.748001,-21.306c0,-6.408997 -8.272995,-8.957001 -8.272995,-8.957001l-7.546997,1.055008z" id="svg_51"/>
    <path fill="#E78724" d="m185.604996,158.889999c0,0 10.022995,11.931 28.638,5.248993s20.521988,-30.544998 20.521988,-37.227005c0,-6.681984 -35.316986,6.682007 -40.090988,9.546005c-4.774002,2.864014 -13.839996,14.317001 -9.069,22.432007z" id="svg_52"/>
    <path fill="#E78724" d="m255.906006,31.399c0,0 -17.179993,-3.343 -28.636993,5.726c-11.453003,9.067001 -14.794998,16.228001 -14.794998,16.228001l19.305984,15.301998c0,0 9.332001,-4.324997 12.196014,-16.735001c2.862,-12.407997 0.953979,-18.133999 11.929993,-20.520998z" id="svg_53"/>
    <path fill="#E78724" d="m190.617996,124.427002c7.397003,-10.5 19.582993,-15.080002 29.320007,-15.838989c16.597,-1.298012 24.472,4.569 24.472,4.569s-27.180008,1.150986 -35.014999,11.439987c-14.585007,19.150009 -35.854004,20.705994 -39.256012,16.5c3.932999,0.195999 8.263,-1.752991 12.891998,-6.132996c2.893005,-2.740005 5.240005,-7.204002 7.587006,-10.537003z" id="svg_54"/>
    <path fill="#E78724" d="m236.501007,161.554001c0,0 30.153015,-10.367004 24.425995,-20.865005c-5.725983,-10.500992 -1.171997,-16.221992 -1.171997,-16.221992s16.843018,12.57 12.548004,25.931999c-2.636993,8.201996 -7.061005,14.139999 -31.354004,25.524994c-11.651993,21.643005 -2.406006,60.600006 -2.957001,60.783005c-0.924011,0.307007 -16.358994,-7.630005 -15.304993,-44.076996c0.319992,-11.192001 1.214981,-26.471008 13.813995,-31.076004z" id="svg_55"/>
    <path fill="#E78724" d="m196.983994,50.074001c12.641006,6.424 29.966995,15.369999 29.966995,15.369999l-6.817001,3.411003c0.651001,1.053993 0.966003,1.682999 0.966003,1.682999l-6.998001,3.181999c0,0 -17.084,12.375 -27.550995,20.331001c3.485992,-10.746002 13.729996,-27.628006 13.729996,-27.628006s2.908005,-7.756996 -3.296997,-16.348995z" id="svg_56"/>
    <path fill="#E78724" d="m154.977997,311.93399c38.860001,0 52.024994,-19.730988 52.024994,-19.730988l-6.069992,14.790985c-2.296005,6.398987 -26.790009,26.311005 -45.895996,26.311005" id="svg_57"/>
    <path fill="#E78724" d="m202.748001,278.871002c0,0 -3.580002,21.854004 -17.893997,21.854004c-12.165009,0 -15.751007,-18.459991 -15.751007,-22.274994l33.645004,0.42099z" id="svg_58"/>
    <path fill="#E78724" d="m226.574997,245.912003c-1.272003,-3.501999 -5.725998,-17.660004 -7.160995,-30.544998c-1.715012,-15.432007 -1.085999,-38.003006 -1.085999,-38.003006s3.819,14.794998 7.155991,17.186005c3.344009,2.384995 9.546005,18.610001 9.546005,18.610001s3.324005,24.156006 4.906006,32.275009c-4.377014,0.876984 -8.059006,-1.703018 -13.361008,0.47699z" id="svg_59"/>
    <path fill="#E78724" d="m261.153992,150.162003c0,0 -8.11499,-2.865997 -10.5,-20.522003c-2.38501,-17.659996 2.86499,-32.931992 2.86499,-32.931992s-0.47998,24.339989 2.38501,29.113998c2.865997,4.772995 5.25,6.203003 8.59201,12.408997c3.338013,6.205994 -1.43399,10.020996 -3.34201,11.931z" id="svg_60"/>
    <path fill="#87CCEE" d="m218.106003,69.060997" id="svg_61"/>
    <path fill="#FDC168" d="m251.464996,35.576l1.658997,-1.049c4.884003,0.165001 -1.658997,1.049 -1.658997,1.049z" id="svg_62"/>
    <path fill="#FBA919" d="m190.378006,44.846001c0,0 7.638,-1.271999 11.453995,-6.998001c3.819,-5.728001 14.639008,-17.184 31.883011,-17.312c17.241989,-0.129 34.30098,4.583 34.30098,4.583l-14.891998,9.409c-1.574982,-0.050999 -4.328979,-0.029999 -8.886993,0.122002c-18.684998,0.620998 -21.561996,19.105999 -21.561996,19.105999l-65.860001,-9.069" id="svg_63"/>
    <path fill="#FFFFFF" d="m184.016006,146.942001c0,0 8.910004,8.910004 22.589996,6.044006c13.684006,-2.862 21.957001,-8.908005 22.594009,-19.409012c0.634995,-10.499992 -2.863007,-14.635994 -2.863007,-14.635994s-15.274994,4.776001 -22.593002,11.140007s-12.725998,16.543991 -19.727997,16.860992z" id="svg_64"/>
    <path fill="#C9C9C9" d="m194.796005,143.759003c0,0 7.729996,3.529999 16.363998,0.654999c11.309006,-3.770996 12.061996,-15.529007 12.061996,-15.529007s6.932007,20.354004 -12.513992,24.272003c-15.594009,3.141998 -24.820007,-5.895996 -24.820007,-5.895996l8.908005,-3.501999z" id="svg_65"/>
    <path fill="#463014" d="m185.916,257.839996" id="svg_66"/>
    <path fill="#463014" d="m245.30899,67.116997c6.303009,-5.228996 1.609009,-10.081997 2.106995,-16.023006c0.265991,-3.160992 0.515991,-6.14399 1.559021,-7.78899c5.800995,-9.159 19.482971,-11.938 19.623993,-11.967001l6.423004,-1.257999l-4.252014,-4.973c-0.550995,-0.644011 -18.009003,-17.30101 -45.028992,-8.57901c-18.895004,6.094999 -32.88501,26.76301 -33.404999,27.598009l9.472,4.45599c0.11499,-0.175999 11.175995,-19.602999 27.388992,-24.830999c13.105011,-4.229 25.18399,-0.20599 30.355011,2.431c-5.497009,2.196011 -12.69101,6.195002 -17.024017,13.036001c-2.044006,3.23101 -2.385986,7.299 -2.717987,11.23801c-0.438995,5.215 -0.854004,10.137989 -4.692993,13.326l10.191986,3.334995z" id="svg_67"/>
    <path fill="#463014" d="m262.140015,143.449997c0,0 -7.937012,-9.847 -10.289001,-29.007996c-0.924011,-7.547005 0.713989,-22.432999 3.338989,-28.160004c-0.47699,14.079002 3.105011,28.160004 3.105011,28.160004s2.414001,26.143997 3.845001,29.007996z" id="svg_68"/>
    <path fill="#463014" d="m220.270996,57.172001c0.003998,-0.021 2.548004,-11.138 9.602005,-16.75c9.947983,-7.914001 22.097,-3.704002 22.210007,-3.667l1.768982,-5.449001c-0.589996,-0.191 -14.472992,-4.566 -27.272995,4.429001c-12.873001,9.045998 -14.414001,17.245998 -14.552002,18.152l8.244003,3.285z" id="svg_69"/>
    <path fill="#463014" d="m237.203003,136.388c0,0 4.165985,-5.964005 3.412994,-12.523003c-0.368988,-3.238998 -1.869995,-6.563995 -4.549988,-7.743996c-4.980011,-2.188004 -7.188004,3.457001 -7.188004,3.457001s7.009995,1.729996 8.324997,16.809998z" id="svg_70"/>
    <path fill="#463014" d="m185.916,257.839996" id="svg_71"/>
    <path fill="#463014" d="m191.460999,145.477997c-0.173996,0.324997 -0.263992,0.507004 -0.263992,0.507004s12.98999,9.751999 26.306992,-0.143997c7.132996,-5.302002 6.459,-18.417 4.270996,-23.979004c-5.675995,1.286987 -10.491989,3.607002 -14.520004,6.315994c5.089005,-4.541 9.543015,-7.883995 9.527008,-7.961006l5.787003,-1.637001l11.238998,-3.85199c0.143997,0.857002 4.242996,20.074005 -7.595001,33.167999c-5.244003,5.806 -29.834,18.807999 -41.505997,-3.423996l6.753998,1.005997z" id="svg_72"/>
    <path fill="#463014" d="m192.673996,146.906998c-7.315994,11.134995 -25.770004,4.772003 -25.451004,-7c0,0 12.330002,6.807007 23.227005,-5.725998c6.362,-7.317001 26.751999,-27.491997 54.396988,-20.787003c-19.090988,4.198006 -44.367981,21.641006 -52.172989,33.513z" id="svg_73"/>
    <g id="svg_74">
     <path fill="#463014" d="m185.916,257.839996" id="svg_75"/>
    </g>
    <path fill="#463014" d="m247.431,178.332993c-1.760986,1.016998 -7.971008,7.445007 -7.971008,17.059006c-0.003998,4.820999 0.47702,29.039993 2.865997,43.835999c-3.589996,2.332001 -6.089996,2.827988 -9.663986,5.204987c-1.789001,-17.135986 -3.076004,-41.971985 -2.473999,-51.997986c0.682999,-11.429001 6.800003,-19.099014 12.473984,-22.37001c1.777008,-1.022003 3.63501,-2.026993 5.509003,-3.037994c9.720001,-5.251999 19.770996,-10.684998 19.770996,-19.962006c0,-7.257004 -2.823975,-9.526993 -5.810974,-11.932999l-0.318024,-0.261002c-1.981995,-1.600998 -4.228973,-3.416992 -5.553986,-6.399002c-3.627014,-8.152992 -4.222015,-28.920998 -0.003998,-34.192993c2.102997,-2.626999 7.742004,-11.460999 6.122009,-17.397003c-0.621002,-2.265999 -2.049011,-3.945 -4.371002,-5.135002c-2.459015,-1.258995 -5.775024,-1.896996 -9.867004,-1.896996c-8.024994,0 -16.936005,2.444 -21.527008,3.898987c-16.419006,5.20401 -36.231003,20.208015 -41.914001,24.683014c-0.162003,0.125 -0.255997,0.197998 -0.274002,0.209999l-3.636002,2.527l2.27301,-3.803001c0.143997,-0.237 14.534988,-23.904999 40.270996,-32.583c5.007996,-1.688 14.843994,-4.521 24.511993,-4.521c5.756012,0 10.63501,1.005001 14.506012,2.985001c4.713989,2.410999 7.903992,6.257999 9.231995,11.120998c3.25,11.920998 -7.335999,25.194 -7.696991,25.618004c-1.234009,2.202995 -1.756012,18.206001 1.091003,24.611c0.391998,0.883995 1.46698,1.752998 2.830994,2.850998c0.425995,0.345001 0.898987,0.702995 1.40799,1.086006c4.02301,3.035995 10.10199,7.622986 10.10199,18.195984c0,14.46701 -14.661987,22.311005 -26.440979,28.618011c-1.934998,1.040009 -3.782013,2.024002 -5.445007,2.985001z" id="svg_76"/>
    <path fill="#463014" d="m229.940002,65.415001c-2.332001,-3.950001 -8.296005,-11.577 -22.041992,-18.278999c-15.340012,-7.477001 -33.094009,-11.272003 -52.777008,-11.281002l0,-0.003998c0,0 -0.026001,0 -0.037994,0c0,0 -0.026001,0 -0.03801,0l0,0.001999c-19.686005,0.009998 -37.442993,3.805 -52.778992,11.280998c-13.74601,6.703003 -19.708,14.329002 -22.042,18.279003l-1.001007,1.324997l11.771004,2.620003l0.372993,-0.471001l0.197006,-0.431999c0.181999,-0.778 1.76001,-4.978001 14.883995,-11.378002c14.029999,-6.842999 30.393997,-10.312 48.633011,-10.318001c18.240997,0.006001 34.597992,3.475002 48.626999,10.318001c13.125,6.400002 14.707993,10.600002 14.888,11.378002l0.195999,0.431999l0.368988,0.471001l11.775009,-2.620003l-0.996002,-1.322998z" id="svg_77"/>
    <g id="svg_78">
     <g id="svg_79">
      <path fill="#463014" d="m245.30899,67.116997c6.303009,-5.228996 1.609009,-10.081997 2.106995,-16.023006c0.265991,-3.160992 0.515991,-6.14399 1.559021,-7.78899c5.800995,-9.159 19.482971,-11.938 19.623993,-11.967001l6.423004,-1.257999l-4.252014,-4.973c-0.550995,-0.644011 -18.009003,-17.30101 -45.028992,-8.57901c-18.895004,6.094999 -32.88501,26.76301 -33.404999,27.598009l9.472,4.45599c0.11499,-0.175999 11.175995,-19.602999 27.388992,-24.830999c13.105011,-4.229 25.18399,-0.20599 30.355011,2.431c-5.497009,2.196011 -12.69101,6.195002 -17.024017,13.036001c-2.044006,3.23101 -2.385986,7.299 -2.717987,11.23801c-0.438995,5.215 -0.854004,10.137989 -4.692993,13.326l10.191986,3.334995z" id="svg_80"/>
     </g>
     <g id="svg_81">
      <path fill="#463014" d="m233.177994,64.147003l1.326004,-1.104004c3.529999,-2.927998 3.925995,-7.656998 4.35199,-12.683998c0.34201,-4.045002 0.695007,-8.229992 2.862,-11.652c3.981995,-6.284 10.286011,-10.222 15.479004,-12.563002c-3.109009,-1.316999 -8.950989,-3.279999 -16.154999,-3.279999c-3.979004,0 -7.862,0.601999 -11.556,1.794001c-15.039001,4.849998 -25.666,22.376999 -26.869003,24.432999l-0.450989,0.713001l-11.209,-5.271l0.569992,-0.91c0.132004,-0.212002 14.199005,-21.641001 33.923996,-28.001001c5.275009,-1.704 10.576019,-2.564 15.756012,-2.564c18.983002,0 30.192993,11.317 30.289001,11.431001l5.316986,6.216l-8.022003,1.573c-0.132996,0.027 -13.479004,2.819 -19.005981,11.541c-0.916016,1.450008 -1.156006,4.317009 -1.416016,7.361c-0.151001,1.810009 0.229004,3.574009 0.598999,5.278999c0.802002,3.69701 1.630005,7.521 -3.04599,11.397003l-0.406006,0.336998l-12.337997,-4.045998z" id="svg_82"/>
     </g>
    </g>
    <g id="svg_83">
     <g id="svg_84">
      <path fill="#463014" d="m220.270996,57.172001c0.003998,-0.021 2.548004,-11.138 9.602005,-16.75c9.947983,-7.914001 22.097,-3.704002 22.210007,-3.667l1.768982,-5.449001c-0.589996,-0.191 -14.472992,-4.566 -27.272995,4.429001c-12.873001,9.045998 -14.414001,17.245998 -14.552002,18.152l8.244003,3.285z" id="svg_85"/>
     </g>
     <g id="svg_86">
      <path fill="#463014" d="m210.975006,54.494999l0.110992,-0.747997c0.140015,-0.946003 1.752014,-9.519001 14.945007,-18.794003c5.427994,-3.813999 11.932007,-5.831999 18.80899,-5.831999c5.216003,0 8.901001,1.146999 9.309021,1.278l0.905975,0.292999l-2.36499,7.268999l-0.912994,-0.302998c-0.341003,-0.115002 -3.408997,-1.102001 -7.536987,-1.102001c-5.290009,0 -9.923004,1.552002 -13.767014,4.615002c-6.746002,5.364998 -9.242996,16.100998 -9.266006,16.206997l-0.248001,1.092003l-9.983994,-3.975002zm40.48999,-18.918999l1.174988,-3.618999c-1.385986,-0.352001 -4.191986,-0.924 -7.799988,-0.924c-6.574005,0 -12.533005,1.846001 -17.709,5.483997c-10.828003,7.611 -13.416,14.488003 -14.003006,16.780003l6.497009,2.586998c0.849991,-3.021 3.664001,-11.441998 9.655991,-16.209999c4.13501,-3.285999 9.306015,-5.023998 14.957993,-5.023998c3.250031,0 5.868011,0.560997 7.226013,0.925999z" id="svg_87"/>
     </g>
    </g>
    <path fill="#463014" d="m178.242004,292.55899c-4.916992,-5.256989 -7.826004,-10.914001 -8.529007,-12.652008c-0.401993,-0.98999 -0.860001,-2.876984 0.582001,-4.358978c1.124008,-1.14801 3.072006,-1.737 5.796005,-1.737l4.192001,0c4.369003,0 9.477997,0 12.516006,0.002991l2.547989,0.003998c3.57901,0 5.34201,1.023987 6.19101,1.881989c1.233994,1.249023 1.427002,2.987 0.576996,5.162018c-2.277008,5.811981 -7.442001,10.554993 -8.968994,11.869995c-2,1.72699 -4.871002,2.75 -7.69101,2.75l0,0c-2.891006,0 -5.451996,-1.039001 -7.212997,-2.923004z" id="svg_88"/>
    <path fill="#463014" d="m182.498001,147.561996l10.175995,-0.654999c0,0 -2.598999,4.587997 -4.284988,10.522003c-1.904007,6.71199 1.740997,16.520996 1.740997,16.520996s-13.577011,-15.369995 -7.632004,-26.388z" id="svg_89"/>
    <path fill="#E78724" d="m155.085007,111.210999c-6.488998,0 -14.949997,-0.178001 -21.298004,-4.739998c0,0 8.312012,14.570999 21.287003,14.570999l0.011002,-1.844002l0.011002,1.844002c12.975998,0 21.287003,-14.570999 21.287003,-14.570999c-6.348007,4.561996 -14.815018,4.739998 -21.298004,4.739998z" id="svg_90"/>
    <path fill="#463014" d="m172.951996,111.140999c-6.509003,3.939003 -12.322006,5.304001 -17.867004,5.425003c-5.54599,-0.121002 -11.356995,-1.486 -17.866989,-5.425003c0,0 9.478989,11.567001 17.819,11.655998l0,0.007004c0.014999,0 0.029999,-0.003998 0.046997,-0.003998c0.014999,0 0.029999,0.003998 0.046997,0.003998l0,-0.007004c8.337997,-0.088997 17.820999,-11.655998 17.820999,-11.655998z" id="svg_91"/>
    <g id="svg_92">
     <path fill="#463014" d="m195.207001,322.367004l-0.725998,-9.434998c30.565002,-2.351013 40.195999,-31.643005 40.245987,-34.726013l9.46402,0c0.003998,7.131012 -12.750015,41.376007 -48.984009,44.161011z" id="svg_93"/>
    </g>
    <path fill="#FFFFFF" d="m205.389008,261.015991c0.569,-3.27301 0.623993,-6.376999 -0.065994,-9.427002c2.757996,-2.069992 7.695999,-2.839005 11.403992,-4.041c3.031998,-1.918991 18.552017,1.966995 29.809006,-11.655991c14.104004,-17.059006 11.131989,-27.244003 11.131989,-27.244003c3.619019,4.01799 7.121002,2.487 12.637024,21.220993c5.519989,18.738007 -2.595001,31.800995 -17.712006,44.915009c-7.141022,6.195007 -17.238007,8.747009 -25.922012,9.723999c2.908997,-2.92099 -4.968994,-3.213013 -10.395996,-5.244995c0.43399,-4.384003 -0.294998,-8.640015 -3.563004,-12.067017c-1.966995,-2.065979 -4.507004,-3.300995 -7.136002,-4.285004c-0.147995,-0.339996 -0.274994,-0.653992 -0.410995,-0.97998c0.08699,-0.298004 0.168991,-0.598999 0.223999,-0.915009z" id="svg_94"/>
    <path fill="#C9C9C9" d="m216.341995,279.148987c0.317993,-0.920013 0.550995,-1.858002 0.783997,-2.802002c0.255005,-1.031006 1.505005,-3.951996 -0.037994,-0.617004c0.395996,-0.854004 0.654999,-1.734009 0.845993,-2.621002c24.481995,-0.031006 45.781006,-16.839996 41.662018,-52.178986c3.204987,-4.255005 7.695984,8.579987 7.695984,8.579987s12.256989,35.588013 -19.397003,49.381012c-10.546997,4.600006 -19.866989,7.897003 -22.067001,6.56601c-4.584991,0.931 -8.719986,-2.263 -10.266998,-4.363007c0.289017,-0.644989 0.560013,-1.290985 0.781006,-1.945007z" id="svg_95"/>
    <path fill="#463014" d="m205.826996,255.891998c-0.033997,-2.983002 -0.647003,-5.871994 -2.085007,-8.751007c-0.10199,-0.197998 -0.218994,-0.388 -0.325989,-0.580994c9.419998,-0.080994 20.270996,-0.983002 29.509995,-4.681c10.153992,-4.061996 22.856995,-17.959 25.041016,-34.287003c0,0 19.125,14.758011 13.504974,46.346008c-5.278992,29.662003 -30.096985,39.331985 -58.403992,40.968002c-0.014999,-0.192017 3.184998,-6.800018 2.173004,-10.845001c16.070007,1.167999 34.044983,-5.041992 42.72699,-19.320007c7.939026,-13.067993 5.712006,-35.378998 2.447021,-38.647995c-7.960999,25.128998 -36.62001,30.236984 -54.588013,29.798996z" id="svg_96"/>
    <g id="svg_97">
     <path fill="#463014" d="m154.977997,294.838989" id="svg_98"/>
     <path fill="#463014" d="m217.257996,263.332001c-3.382004,-3.656006 -9.600006,-8.013992 -23.936996,-8.013992c0,0 -27.182007,-0.016006 -38.188004,-0.02301l0,0c-0.014999,0 -0.033997,0 -0.046997,0c0,0 -0.033997,0 -0.046997,0l0,0c-11.005005,0.007996 -38.194,0.02301 -38.194,0.02301c-14.333008,0 -20.551003,4.358994 -23.934998,8.013992c-4.929001,5.321014 -5.702011,12.722992 -2.292007,21.975006c9.060997,24.626007 21.794006,49.644989 64.419006,49.679993l0,0.003998c0.015991,0 0.029999,-0.003998 0.046997,-0.003998c0.014999,0 0.029999,0.003998 0.046997,0.003998l0,-0.003998c42.621002,-0.036987 55.354004,-25.053986 64.417999,-49.679993c3.410004,-9.252014 2.63501,-16.653992 -2.291,-21.975006zm-6.636002,20.247986c-4.317001,12.365997 -15.919006,42.298004 -55.539001,42.350006c-39.625,-0.052002 -51.223,-29.983002 -55.540001,-42.350006c-2.389,-6.860992 -2.207001,-11.937988 0.558998,-15.09201c1.889,-2.155975 6.229004,-4.729004 16.119995,-4.729004l10.333008,-0.003998c7.623001,-0.006989 17.194,-0.014984 28.528992,-0.018982c11.331009,0.003998 20.907013,0.011993 28.528015,0.018982l10.328995,0.003998c9.893997,0 14.233002,2.572021 16.123001,4.729004c2.763,3.157013 2.947006,8.231018 0.557999,15.09201z" id="svg_99"/>
    </g>
    <path fill="#463014" d="m202.863007,237.901993c5.093994,14.949005 15.498001,27.047012 15.498001,27.047012s-14.311996,-0.651001 -15.102997,-3.184021c-0.581009,-1.867004 -12.921005,-30.751984 -17.656998,-64.588989c4.451981,7.319 16.824982,39.445999 17.261993,40.725998z" id="svg_100"/>
   </g>
  </g>
 </g>
</svg>