<svg width="434" height="492" xmlns="http://www.w3.org/2000/svg">
 <title>HTML5 Logo</title>
 <g>
  <title>Layer 1</title>
  <polygon fill="#E44D26" points="39.458 442.573 0 0 433.58 0 394.08 442.503 216.524 491.728" id="svg_1"/>
  <polygon fill="#F16529" points="216.79 454.103 360.264 414.327 394.019 36.187 216.79 36.187" id="svg_2"/>
  <polygon fill="#EBEBEB" points="216.79 200.332 144.964 200.332 140.003 144.748 216.79 144.748 216.79 90.468 216.602 90.468 80.682 90.468 81.981 105.03 95.322 254.61 216.79 254.61" id="svg_3"/>
  <polygon fill="#EBEBEB" points="215.79 341.301 215.552 341.365 155.101 325.041 151.236 281.751 121.861 281.751 96.748 281.751 104.352 366.978 215.54 397.844 215.79 397.775" id="svg_4"/>
  <polygon fill="#FFFFFF" points="215.602 200.332 215.602 254.61 282.441 254.61 276.142 325.007 215.602 341.347 215.602 397.818 326.879 366.978 327.695 357.808 340.45 214.907 341.774 200.332 327.147 200.332" id="svg_9"/>
  <polygon fill="#FFFFFF" points="216.602 90.468 216.602 124.18 216.602 144.615 216.602 144.748 347.539 144.748 347.539 144.748 347.714 144.748 348.803 132.547 351.275 105.03 352.574 90.468" id="svg_10"/>
 </g>
</svg>