<svg width="278" height="71" xmlns="http://www.w3.org/2000/svg">
 <g>
  <title>Layer 1</title>
  <g id="svg_1">
   <g id="svg_2">
    <path id="svg_3" d="m107.212044,62.984001c-0.020996,0.612 -0.063004,1.242996 -0.143005,1.912994l2.490005,-4.513992l-0.274002,-1.472l2.5,-0.382004l0.910004,6.253006l1.149002,-3.919998c0.091003,-0.383011 0.138992,-0.669006 0.149002,-0.956009c0.009995,-0.287003 -0.018005,-0.593002 -0.118011,-1.013992l2.618011,-0.497009c0.095993,0.535004 0.156998,0.99501 0.139999,1.472c-0.022003,0.630997 -0.181,1.319 -0.619003,2.352005l-2.108002,5.660995l-3.117004,0l-0.654999,-4.225998l-2.440994,4.225998l-3.020996,0c0.118988,-3.938995 -0.024002,-6.405991 -0.298004,-8.987991l2.595001,-0.401001c0.195984,1.43399 0.299988,2.867996 0.242996,4.492996z" fill="#FFFFFF"/>
    <path id="svg_4" d="m123.443031,60.823997c-1.208008,0.649994 -1.656006,0.899002 -2.75,1.567993l-1.167007,5.488007l-2.694992,0l1.903992,-9.082993l2.384003,-0.401001l-0.10199,1.261993c0.917999,-0.535004 1.65799,-0.917999 2.472992,-1.261993l-0.046997,2.427994z" fill="#FFFFFF"/>
    <path id="svg_5" d="m125.043037,58.777l2.785995,-0.382004l-2.013992,9.485001l-2.695007,0l1.923004,-9.102997zm0.871002,-4.112l2.786003,-0.382004l-0.616989,2.867996l-2.767021,0.383011l0.598007,-2.869003z" fill="#FFFFFF"/>
    <path id="svg_6" d="m132.794052,60.727989l-0.983994,4.645996c-0.022003,0.096008 -0.045013,0.19101 -0.047012,0.249008c-0.003998,0.134003 0.070007,0.190994 0.262009,0.190994c0.459,0 0.979996,-0.190994 1.466003,-0.382996l0.470001,1.873993c-0.779007,0.419998 -1.900009,0.764999 -2.990005,0.764999c-1.356995,0 -2.061996,-0.649994 -2.022003,-1.758987c0.003998,-0.134003 0.029007,-0.268005 0.052002,-0.402008l1.098999,-5.182007l-1.375992,0l0.457993,-2.160995l1.376999,0l0.460007,-2.237991l2.784988,-0.382004l-0.549988,2.619995l2.217987,0l-0.610992,2.160995l-2.067001,0l0,0.001007z" fill="#FFFFFF"/>
    <path id="svg_7" d="m136.004044,61.89399c0.455994,-2.141998 1.460999,-3.518005 4.404999,-3.518005c1.759003,0 3.070007,0.764999 3.016006,2.333008c-0.063004,1.817001 -1.029007,2.658005 -3.348007,3.345993c-1.140991,0.344009 -1.158997,0.344009 -1.970001,0.555008l-0.138,0.649994c-0.069,0.345001 -0.041992,0.650009 0.455002,0.650009c0.975998,0 2.406998,-0.478012 3.688004,-1.032013l0.449005,1.912003c-1.153,0.708008 -2.951004,1.281998 -4.595001,1.281998c-1.932007,0 -2.725006,-0.840988 -2.669006,-2.429001c0.011993,-0.343994 0.063995,-0.72699 0.154007,-1.127991l0.552994,-2.621002zm4.906006,-0.897995c0.011993,-0.324997 -0.268005,-0.535995 -0.764999,-0.535995c-0.975998,0 -1.281998,0.554993 -1.442001,1.319992l-0.136993,0.650009c0.462997,-0.115005 0.673996,-0.153 1.233994,-0.326004c0.735001,-0.210007 1.091003,-0.554001 1.110001,-1.108002z" fill="#FFFFFF"/>
    <path id="svg_8" d="m150.381058,54.760994l2.786011,-0.382004l-2.843018,13.5l-2.695007,0l2.752014,-13.117996z" fill="#FFFFFF"/>
    <path id="svg_9" d="m153.516037,61.89399c0.455994,-2.141998 1.460999,-3.518005 4.404999,-3.518005c1.759003,0 3.070007,0.764999 3.015991,2.333008c-0.062988,1.817001 -1.028992,2.658005 -3.347992,3.345993c-1.140991,0.344009 -1.158997,0.344009 -1.970001,0.555008l-0.138,0.649994c-0.069,0.345001 -0.041992,0.650009 0.455017,0.650009c0.975983,0 2.406982,-0.478012 3.687988,-1.032013l0.449005,1.912003c-1.153015,0.708008 -2.951019,1.281998 -4.595001,1.281998c-1.932007,0 -2.725006,-0.840988 -2.669006,-2.429001c0.011993,-0.343994 0.063995,-0.72699 0.153992,-1.127991l0.553009,-2.621002zm4.906006,-0.897995c0.011993,-0.324997 -0.268005,-0.535995 -0.765015,-0.535995c-0.975983,0 -1.281982,0.554993 -1.441986,1.319992l-0.136993,0.650009c0.462982,-0.115005 0.673981,-0.153 1.234009,-0.326004c0.734985,-0.210007 1.090973,-0.554001 1.109985,-1.108002z" fill="#FFFFFF"/>
    <path id="svg_10" d="m161.160049,67.458992l0.585999,-1.988998c0.697998,0.248993 1.493011,0.477997 2.506989,0.477997c0.89801,0 0.965027,-0.268005 1.057007,-0.707993c0.091003,-0.420013 -0.169006,-0.650009 -1.200989,-1.205002c-1.912994,-1.033005 -1.966003,-1.721008 -1.667999,-3.117004c0.432983,-2.007996 1.044983,-2.542999 3.626007,-2.542999c0.878998,0 2,0.190994 2.756989,0.438995l-0.511993,2.027008c-0.682007,-0.19101 -1.688019,-0.344009 -2.33902,-0.344009c-0.802979,0 -0.921997,0.096008 -1.034973,0.59201c-0.091003,0.439987 0.000977,0.535995 0.882996,1.013992c2.10199,1.147995 2.412994,1.548996 2.093994,3.020996c-0.455994,2.104004 -1.097015,2.945007 -3.889008,2.945007c-0.862,0.001999 -2.057007,-0.246994 -2.865997,-0.610001z" fill="#FFFFFF"/>
    <path id="svg_11" d="m168.884048,67.458992l0.585999,-1.988998c0.697998,0.248993 1.493011,0.477997 2.506989,0.477997c0.89801,0 0.965027,-0.268005 1.057007,-0.707993c0.091003,-0.420013 -0.169006,-0.650009 -1.200989,-1.205002c-1.912994,-1.033005 -1.966003,-1.721008 -1.667999,-3.117004c0.432983,-2.007996 1.044983,-2.542999 3.626007,-2.542999c0.878998,0 2,0.190994 2.756989,0.438995l-0.511993,2.027008c-0.682007,-0.19101 -1.688019,-0.344009 -2.33902,-0.344009c-0.802979,0 -0.921997,0.096008 -1.034973,0.59201c-0.091003,0.439987 0.000977,0.535995 0.882996,1.013992c2.10199,1.147995 2.412994,1.548996 2.093994,3.020996c-0.455994,2.104004 -1.097015,2.945007 -3.889008,2.945007c-0.860992,0.001999 -2.056,-0.246994 -2.865997,-0.610001z" fill="#FFFFFF"/>
    <path id="svg_12" d="m176.271042,69.963997l1.54599,-2.084l-1.013977,0l0.664978,-3.173996l2.695007,0l-0.729004,3.403992l-2.216003,2.639008l-0.946991,-0.785004z" fill="#FFFFFF"/>
    <path id="svg_13" d="m191.008041,67.879997l-0.049011,-0.802994c-0.687988,0.554993 -1.658997,0.994995 -2.997986,0.994995c-2.026001,0 -2.480011,-1.223999 -2.045013,-3.309006l0.527008,-2.50499c0.459991,-2.218002 1.09201,-3.882004 5.011017,-3.882004c0.286987,0 0.877991,0.037994 1.125,0.095993l0.778992,-3.709991l2.765991,-0.382004l-2.841003,13.5l-2.274994,0zm-2.463989,-2.792007c-0.113007,0.498001 0.013,0.727005 0.48999,0.727005c0.956024,0 1.661011,-0.498001 2.193024,-0.957001l0.870972,-4.149002c-0.303986,-0.057999 -0.665985,-0.076996 -1.047974,-0.076996c-1.396027,0 -1.709015,0.745987 -1.912018,1.644989l-0.593994,2.811005z" fill="#FFFFFF"/>
    <path id="svg_14" d="m195.792038,64.953987c0.007996,-0.210007 0.035004,-0.440002 0.080994,-0.649994l0.458008,-2.161011c0.502991,-2.390991 1.718994,-3.766998 4.968994,-3.766998c2.505005,0 3.582001,1.434006 3.524017,3.098007c-0.008026,0.209991 -0.035004,0.440002 -0.081024,0.668991l-0.457001,2.161011c-0.47998,2.237991 -1.603973,3.76799 -4.987976,3.76799c-2.371002,-0.000992 -3.563995,-1.415985 -3.506012,-3.117996zm6.328003,-3.269989c0.023987,-0.688004 -0.382996,-1.052002 -1.263,-1.052002c-1.014008,0 -1.625,0.516006 -1.80899,1.434006l-0.481995,2.313995c-0.024017,0.134003 -0.048004,0.268005 -0.052002,0.382004c-0.02301,0.668991 0.383972,1.052002 1.263977,1.052002c1.032013,0 1.623016,-0.516998 1.809021,-1.434998l0.481995,-2.314011c0.023987,-0.132004 0.048004,-0.266006 0.050995,-0.380997z" fill="#FFFFFF"/>
    <path id="svg_15" d="m221.283035,61.549995c0.02301,-0.115005 0.04599,-0.210007 0.048004,-0.287003c0.006989,-0.190994 -0.085999,-0.26799 -0.354004,-0.26799c-0.497009,0 -1.681,0.496994 -2.459015,0.897995l-1.260986,5.985992l-2.677002,0l1.330017,-6.330002c0.021973,-0.11499 0.04599,-0.209991 0.047974,-0.286987c0.007019,-0.19101 -0.085999,-0.268005 -0.353973,-0.268005c-0.497009,0 -1.700012,0.496994 -2.440002,0.878998l-1.261017,6.005005l-2.695007,0l1.904022,-9.083008l2.384003,-0.401001l-0.055023,1.032013c1.477997,-0.688004 2.637024,-1.05101 3.708008,-1.05101c0.916992,0 1.381012,0.401001 1.567017,1.089996c1.442993,-0.822998 2.733978,-1.089996 3.804993,-1.089996c1.242981,0 1.677002,0.708008 1.635986,1.893005c-0.011993,0.326004 -0.044006,0.688995 -0.132996,1.070999l-1.376007,6.539993l-2.695984,0l1.330994,-6.328995z" fill="#FFFFFF"/>
    <path id="svg_16" d="m225.062057,64.953987c0.007996,-0.210007 0.035004,-0.440002 0.080994,-0.649994l0.458008,-2.161011c0.502991,-2.390991 1.718994,-3.766998 4.968994,-3.766998c2.505005,0 3.582001,1.434006 3.524017,3.098007c-0.008026,0.209991 -0.035004,0.440002 -0.081024,0.668991l-0.457001,2.161011c-0.47998,2.237991 -1.603973,3.76799 -4.987976,3.76799c-2.371033,-0.000992 -3.565033,-1.415985 -3.506012,-3.117996zm6.328003,-3.269989c0.023987,-0.688004 -0.382996,-1.052002 -1.263,-1.052002c-1.014008,0 -1.625,0.516006 -1.80899,1.434006l-0.481995,2.313995c-0.024017,0.134003 -0.048004,0.268005 -0.052002,0.382004c-0.02301,0.668991 0.384003,1.052002 1.263977,1.052002c1.032013,0 1.623016,-0.516998 1.809021,-1.434998l0.481995,-2.314011c0.023987,-0.132004 0.046967,-0.266006 0.050995,-0.380997z" fill="#FFFFFF"/>
    <path id="svg_17" d="m241.247055,60.823997c-1.208008,0.649994 -1.656006,0.899002 -2.75,1.567993l-1.166992,5.488007l-2.695007,0l1.903992,-9.082993l2.384003,-0.401001l-0.10199,1.261993c0.917999,-0.535004 1.65799,-0.917999 2.472992,-1.261993l-0.046997,2.427994z" fill="#FFFFFF"/>
    <path id="svg_18" d="m241.861038,61.89399c0.455994,-2.141998 1.460999,-3.518005 4.404999,-3.518005c1.759003,0 3.070007,0.764999 3.015991,2.333008c-0.062988,1.817001 -1.028992,2.658005 -3.348999,3.345993c-1.139984,0.344009 -1.15799,0.344009 -1.968994,0.555008l-0.138,0.649994c-0.069,0.345001 -0.041992,0.650009 0.455017,0.650009c0.975983,0 2.406982,-0.478012 3.687988,-1.032013l0.449005,1.912003c-1.153015,0.708008 -2.951019,1.281998 -4.595001,1.281998c-1.932007,0 -2.725006,-0.840988 -2.669006,-2.429001c0.011993,-0.343994 0.063995,-0.72699 0.153992,-1.127991l0.553009,-2.621002zm4.906006,-0.897995c0.011993,-0.324997 -0.268005,-0.535995 -0.765015,-0.535995c-0.975983,0 -1.281982,0.554993 -1.441986,1.319992l-0.136993,0.650009c0.462982,-0.115005 0.673981,-0.153 1.234009,-0.326004c0.734985,-0.210007 1.089996,-0.554001 1.109985,-1.108002z" fill="#FFFFFF"/>
    <path id="svg_19" d="m250.384048,64.704994l2.695007,0l-0.665009,3.173996l-2.695007,0l0.665009,-3.173996z" fill="#FFFFFF"/>
   </g>
  </g>
  <path id="svg_20" d="m3.270037,13.442993c-4.556999,6.547005 -3.994003,15.064003 -0.506996,22.021004c0.077995,0.169998 0.167999,0.330994 0.252998,0.494995c0.048996,0.106003 0.103996,0.212997 0.165001,0.317001c0.025993,0.057999 0.066994,0.121002 0.100998,0.177002c0.056,0.113998 0.115997,0.218002 0.174995,0.326996c0.112007,0.188004 0.224007,0.380005 0.336006,0.567001c0.062996,0.104004 0.124001,0.209 0.194,0.313004c0.118996,0.201996 0.256996,0.401001 0.380997,0.602997c0.056,0.085999 0.108002,0.169998 0.167999,0.253998c0.179001,0.272003 0.358002,0.542007 0.556,0.806c0,0.007996 0.007004,0.014999 0.014999,0.018997c0.029999,0.045013 0.063004,0.088013 0.093002,0.129013c0.167999,0.228989 0.335999,0.453995 0.512001,0.675995c0.059998,0.082001 0.125999,0.164001 0.186996,0.244003c0.160004,0.194 0.317001,0.388 0.473999,0.580994c0.060005,0.069 0.120003,0.141998 0.183006,0.212997c0.209,0.251999 0.428993,0.501999 0.653,0.749008c0,0.002991 0.006996,0.009003 0.010994,0.014999c0.007004,0.009003 0.014999,0.018997 0.030006,0.028c0.215996,0.237 0.436996,0.470001 0.660995,0.701996c0.070999,0.070999 0.141998,0.139999 0.220001,0.214996c0.170998,0.174011 0.343002,0.348999 0.526001,0.521011c0.074997,0.070999 0.149002,0.139999 0.220001,0.209c0.238998,0.223999 0.477997,0.447998 0.727997,0.662994c0.003998,0.003998 0.008003,0.005997 0.011002,0.009003c0.041,0.035995 0.085999,0.070999 0.124001,0.106003c0.220001,0.187988 0.440002,0.375 0.664001,0.559998c0.089996,0.074997 0.179001,0.145996 0.268997,0.218002c0.186996,0.146988 0.373001,0.288986 0.559998,0.431c0.097,0.072998 0.194,0.146988 0.295006,0.223999c0.201996,0.151001 0.410995,0.297989 0.615997,0.444c0.074997,0.054001 0.149002,0.108002 0.227997,0.158997c0.019005,0.016998 0.041,0.031998 0.060005,0.046997c0.204994,0.134003 0.398994,0.264999 0.600998,0.397003c0.088997,0.057999 0.175003,0.113998 0.261002,0.17099c0.312996,0.200012 0.626999,0.392014 0.936996,0.57901c0.089005,0.046997 0.179001,0.097 0.264999,0.147003c0.231003,0.133987 0.467003,0.266998 0.706001,0.393997c0.129997,0.072998 0.261002,0.136002 0.396004,0.203003c0.160995,0.087997 0.328995,0.176987 0.5,0.264999c0.041,0.016998 0.082001,0.031998 0.118996,0.052002c0.070999,0.031998 0.138,0.066986 0.205002,0.100998c0.262001,0.128998 0.529999,0.25 0.807007,0.373993c0.051987,0.024002 0.107986,0.046005 0.163986,0.074997c0.310013,0.134003 0.62001,0.263 0.937012,0.388c0.074997,0.028 0.149002,0.062012 0.227997,0.087006c0.287994,0.112 0.585999,0.222 0.880997,0.328995c0.037994,0.014999 0.070999,0.026001 0.108002,0.039001c0.328003,0.112 0.653,0.218002 0.985001,0.320999c0.078003,0.022003 0.156998,0.050003 0.238998,0.070999c0.339996,0.102997 0.667999,0.222 1.014999,0.28801c22.033003,4.015991 28.434004,-13.241013 28.434004,-13.241013c-5.378006,7 -14.921997,8.850006 -23.962004,6.793015c-0.335999,-0.076004 -0.667999,-0.183014 -1.007996,-0.284012c-0.07901,-0.021988 -0.167999,-0.047989 -0.247009,-0.075989c-0.327988,-0.098999 -0.653,-0.206009 -0.970001,-0.314011c-0.044998,-0.014999 -0.092987,-0.030991 -0.137985,-0.050003c-0.287003,-0.098999 -0.571014,-0.206985 -0.854004,-0.316986c-0.07901,-0.034012 -0.161011,-0.062012 -0.238998,-0.09201c-0.313004,-0.123001 -0.623001,-0.25499 -0.925003,-0.388c-0.067001,-0.024002 -0.124008,-0.052002 -0.186996,-0.078003c-0.264999,-0.121994 -0.519012,-0.240997 -0.776001,-0.363998c-0.078003,-0.03299 -0.149002,-0.070999 -0.228012,-0.110001c-0.201996,-0.095001 -0.403,-0.201996 -0.600998,-0.306c-0.138,-0.070999 -0.272995,-0.136002 -0.403,-0.209c-0.242996,-0.12999 -0.485001,-0.268997 -0.727997,-0.403c-0.074997,-0.050995 -0.156998,-0.093994 -0.242996,-0.139999c-0.313004,-0.186996 -0.630997,-0.378998 -0.940002,-0.576996c-0.089005,-0.056 -0.171997,-0.112 -0.253998,-0.169998c-0.227997,-0.143997 -0.452003,-0.294998 -0.672005,-0.444c-0.070999,-0.050003 -0.141998,-0.102997 -0.215996,-0.154999c-0.212997,-0.149002 -0.422005,-0.300003 -0.634003,-0.456009c-0.089996,-0.070999 -0.182999,-0.141998 -0.279999,-0.21199c-0.190002,-0.147003 -0.380997,-0.292999 -0.570999,-0.445999c-0.083,-0.069 -0.167999,-0.136002 -0.25,-0.203003c-0.246002,-0.197998 -0.477997,-0.395996 -0.712997,-0.600998c-0.022003,-0.024002 -0.056,-0.044998 -0.082001,-0.065002c-0.25,-0.223999 -0.5,-0.453003 -0.747002,-0.681c-0.074997,-0.070999 -0.138,-0.136002 -0.211998,-0.203995c-0.179001,-0.175003 -0.358002,-0.347 -0.534004,-0.524002c-0.074997,-0.074005 -0.141998,-0.143997 -0.212997,-0.214005c-0.223999,-0.225998 -0.444,-0.459 -0.661003,-0.697998c-0.011002,-0.009995 -0.021996,-0.020996 -0.033997,-0.033997c-0.228004,-0.25 -0.447998,-0.503998 -0.667999,-0.762009c-0.060005,-0.069 -0.116005,-0.139999 -0.175003,-0.207001c-0.160995,-0.197998 -0.320999,-0.396988 -0.485001,-0.595001c-0.052002,-0.076996 -0.112,-0.148987 -0.171997,-0.223999c-0.190002,-0.244995 -0.373001,-0.488998 -0.556,-0.740997c-5.016998,-6.843994 -6.827003,-16.289001 -2.814003,-24.039001" fill="#7ACEF4"/>
  <path id="svg_21" d="m17.41604,7.923996c-3.304001,4.739998 -3.121002,11.086998 -0.548996,16.103996c0.425003,0.840012 0.910995,1.656006 1.455994,2.430008c0.492996,0.709 1.03801,1.548996 1.697998,2.117996c0.231003,0.261002 0.481003,0.514999 0.738998,0.770996c0.063004,0.063004 0.126999,0.125 0.194,0.192001c0.247009,0.237 0.497009,0.470001 0.754013,0.697998c0.007996,0.01001 0.021988,0.018997 0.029999,0.028c0.002991,0.001999 0.006989,0.005005 0.006989,0.005005c0.287003,0.253998 0.57901,0.494995 0.881012,0.729996c0.070999,0.050003 0.133987,0.106003 0.204987,0.156998c0.299011,0.233002 0.605011,0.457001 0.915009,0.677002c0.011002,0.003998 0.018997,0.011002 0.033997,0.016998c0.134003,0.097 0.276001,0.187012 0.421997,0.279999c0.063004,0.041 0.130005,0.089005 0.194,0.129013c0.228012,0.146988 0.452011,0.284988 0.682999,0.421997c0.034012,0.016998 0.067001,0.035004 0.101013,0.052002c0.194,0.117996 0.398987,0.233002 0.604996,0.337997c0.070999,0.042999 0.141998,0.076996 0.21199,0.115997c0.142014,0.070999 0.284012,0.145996 0.422012,0.218002c0.018997,0.009995 0.044998,0.020996 0.067001,0.029999c0.291,0.143997 0.585999,0.276001 0.876999,0.408997c0.070999,0.028 0.130997,0.052002 0.197998,0.080002c0.238998,0.102997 0.481003,0.203995 0.720993,0.294998c0.108002,0.035995 0.209,0.078003 0.309998,0.113998c0.220001,0.078003 0.444,0.154999 0.665009,0.228012c0.108002,0.035995 0.205002,0.064987 0.302002,0.096985c0.312988,0.099014 0.630997,0.226013 0.962997,0.278015c17.004988,2.819992 20.938993,-10.279007 20.938993,-10.279007c-3.541988,5.102997 -10.398998,7.531998 -17.714005,5.632996c-0.328995,-0.084 -0.648998,-0.177994 -0.962997,-0.279999c-0.100998,-0.026001 -0.189999,-0.057999 -0.287003,-0.091003c-0.227997,-0.072998 -0.455994,-0.149002 -0.675993,-0.230988c-0.100998,-0.037003 -0.205002,-0.075012 -0.306,-0.114014c-0.242996,-0.095001 -0.485001,-0.187988 -0.720993,-0.292999c-0.071014,-0.028 -0.138,-0.052002 -0.194,-0.082001c-0.302002,-0.130997 -0.601013,-0.270996 -0.892014,-0.410995c-0.148987,-0.076996 -0.294998,-0.151001 -0.444,-0.229004c-0.088989,-0.044998 -0.174988,-0.087997 -0.253998,-0.128998c-0.197998,-0.102997 -0.380997,-0.210999 -0.567001,-0.320999c-0.043991,-0.024002 -0.088989,-0.046997 -0.133987,-0.072998c-0.228012,-0.138 -0.463013,-0.276001 -0.679001,-0.419998c-0.075012,-0.042007 -0.138,-0.091003 -0.209,-0.136002c-0.149002,-0.095001 -0.295013,-0.190002 -0.448013,-0.292999c-0.309998,-0.214996 -0.612,-0.442001 -0.913986,-0.669998c-0.071014,-0.057999 -0.138,-0.110001 -0.206009,-0.166c-3.209991,-2.527008 -5.748001,-5.983002 -6.949997,-9.895996c-1.268997,-4.065002 -0.988998,-8.628006 1.197998,-12.329002" fill="#7ACEF4"/>
  <path id="svg_22" d="m29.308039,3.801994c-1.947998,2.859001 -2.134995,6.411003 -0.792007,9.564003c1.42601,3.351997 4.341002,5.980995 7.738008,7.22599c0.137997,0.054001 0.275997,0.099014 0.417995,0.147003c0.063004,0.018997 0.123001,0.039001 0.190002,0.059998c0.198002,0.062012 0.395996,0.136002 0.600998,0.17601c9.395008,1.813995 11.940002,-4.820999 12.623997,-5.796997c-2.235996,3.213989 -5.987003,3.983994 -10.588993,2.866989c-0.362,-0.087997 -0.757996,-0.218002 -1.108002,-0.345001c-0.447994,-0.158997 -0.891998,-0.343002 -1.324993,-0.546997c-0.810001,-0.393997 -1.594009,-0.867996 -2.318012,-1.416992c-4.121,-3.124008 -6.672987,-9.083008 -3.985991,-13.937004" fill="#7ACEF4"/>
  <path id="svg_23" d="m246.994034,17.195l0.368988,1.557007c0.104004,0.445999 -0.178986,0.806 -0.634979,0.806" fill="#FFFFFF"/>
  <path id="svg_24" d="m217.358047,14.521996c-0.092987,0.431 -0.204987,0.975998 -0.278992,1.335999l-3.251007,15.214996l3.419006,-16.028992l0.110992,-0.522003z" fill="#FFFFFF"/>
  <polygon id="svg_25" points="119.963 24.704 118.167 31.063 119.963 24.706" fill="#FFFFFF"/>
  <path id="svg_26" d="m247.364059,18.750999l-0.937012,-3.961998c-0.738983,-2.867004 -2.832977,-4.222 -7.539001,-4.222l-19.793976,0c-0.456024,0 -0.911011,0.206001 -1.003998,0.651001l-7.51001,35.613991c-0.097992,0.449997 -0.127014,0.771011 -0.075012,0.993011c0.053009,0.228989 0.934021,0.186996 1.38501,0.186996l6.855988,0c0.459015,0 1.292023,0.033997 1.533997,-0.063004c0.254028,-0.104004 0.366028,-0.783005 0.459015,-1.231995l2.423004,-12.487l2.959991,-13.851013c0.097015,-0.443985 0.545013,-0.807999 1,-0.807999l19.606018,-0.013c0.452972,0 0.73996,-0.362 0.635986,-0.806992" fill="#FFFFFF"/>
  <path id="svg_27" d="m275.255035,4.313995c-0.459015,0.004997 -8.695007,0 -8.695007,0c-0.454987,0 -1.040985,0.488998 -1.294983,0.865997l-15.262985,22.455009c-0.261017,0.376999 -0.556,0.363998 -0.656006,-0.080002l-1.127991,-4.921005c-0.097015,-0.445999 -0.552002,-0.809998 -1.015015,-0.809998l-9.809998,0c-0.450989,0 -0.723999,0.376999 -0.604004,0.817001l4.397003,15.416992c0.127014,0.44101 0.138,1.162003 0.024994,1.604004l-2.050995,7.809006c-0.108002,0.442001 0.171997,0.575989 0.63501,0.575989l9.686005,0c0.454987,0 0.925995,-0.131989 1.036987,-0.575989l2.052002,-7.917999c0.112,-0.44101 0.428986,-1.042007 0.700989,-1.410004l24.909988,-33.036003c0.279999,-0.362 0.23999,-0.794998 -0.214996,-0.794998l-2.710999,0.001999z" fill="#FFFFFF"/>
  <path id="svg_28" d="m173.120041,10.597992l-8.854004,0c-0.450989,0 -0.914001,0.158997 -1.003998,0.606003l-2.925995,13.691994l-2.915009,13.110001c-0.093994,0.444 -0.544983,0.414001 -1.001007,0.414001l-5.817993,0c-5.755997,0 -5.09198,-3.636993 -3.90799,-9.087997c0.014984,-0.054001 3.69101,-18.127998 3.69101,-18.127998c0.08197,-0.446007 -0.21701,-0.606003 -0.66803,-0.606003l-8.435989,0c-0.455002,0 -0.906998,0.161003 -0.996002,0.606003l-3.393997,18.114998c-1.692001,9.793991 -1.742996,18.412994 9.61499,18.697006c0.187012,0.006989 17.935028,0 17.935028,0c0.458984,0 0.909973,-0.150009 1.007996,-0.59201l3.85199,-18.166992l3.837006,-18.242004c0.001007,0.000999 0.136993,-0.417 -0.018005,-0.417z" fill="#FFFFFF"/>
  <path id="svg_29" d="m84.937035,10.567993l-9.492004,0c-0.455994,0 -0.914993,0.108002 -1.014999,0.556l-1.712997,7.411003c-0.097,0.438004 0.194,0.789001 0.653,0.789001l9.087997,0c0.459,0 0.915009,-0.414001 1.012009,-0.856003l1.649994,-7.467003c0,0 0.131012,-0.432999 -0.182999,-0.432999z" fill="#FFFFFF"/>
  <path id="svg_30" d="m72.754036,21.82299c-0.451996,0 -0.914993,0.360001 -1.011993,0.806l-1.280014,5.653l-2.854996,13.054001c0,0 -1.518997,6.938995 -1.664993,7.373993c0,0 -1.279007,5.011002 -4.335007,4.810013c-1.421997,-0.094009 -3.046997,-0.420013 -3.046997,-0.420013l-0.003998,0c-0.854004,-0.257996 -0.915009,0.629013 -1.018997,1.072006l-1.88501,8.132996c-0.107998,0.445007 0.182999,0.846008 0.63501,0.852005c0,0 4.08699,0.576004 6.972,0.576004l0.474003,0c7.128994,0 10.895,-4.19101 13.301998,-15.572998l2.821991,-13.174011l2.645996,-12.256989c0.097,-0.445999 -0.171997,-0.860001 -0.626999,-0.860001" fill="#FFFFFF"/>
  <path id="svg_31" d="m195.523056,10.512993c-15.96701,0 -19.777985,9.869003 -21.89801,19.649994c-2.119995,9.973007 -1.938995,17.856003 14.581024,17.856003l0.596985,0c6.554993,0 14.518005,0 14.518005,0c0.446991,-0.007996 0.895996,-0.417999 0.984985,-0.860001l1.624023,-6.325989c0.093994,-0.448013 -0.209015,-0.580002 -0.660004,-0.580002l-14.859009,0c-5.381989,0 -7.30899,-1.658005 -7.121002,-5.381012c-0.003998,-0.423996 0.480988,-1.501999 0.937012,-1.501999l22.888,0c1.004974,-0.005997 1.036987,-0.593994 1.036987,-0.593994c2.328003,-10.515991 2.47998,-22.263 -12.628998,-22.263m4.208984,15.669006c0,0.494995 -1.562012,0.399994 -1.562012,0.399994l-12.446991,-0.089996c-0.429993,0 -0.553009,-0.602997 -0.583008,-1.033997c-0.000977,-0.014999 0.031006,-0.516998 0.067017,-0.641998c0.962982,-3.337006 3.833008,-5.244003 8.384003,-5.244003c5.119995,0 6.213989,2.540009 6.213989,5.356003" fill="#FFFFFF"/>
  <path id="svg_32" d="m126.517036,37.726997c0,0 4.472008,-10.863007 5.486015,-17.141006c1.388992,-8.401993 -2.814011,-20.585991 -19.06501,-20.585991c-16.154007,0 -23.164001,11.631996 -25.847,24.279991c-2.672012,12.739014 0.825989,23.830002 16.890991,23.740005l24.521019,-0.014999c0.451996,-0.001999 0.921997,-0.367004 1.037994,-0.802994l2.067001,-7.871002c0.112,-0.444 -0.167999,-0.805008 -0.626999,-0.807007l-1.975006,-0.014999l-1.974007,-0.009003c-0.388,-0.003998 -0.612,-0.255997 -0.559998,-0.589996c0.007004,-0.059998 0.014999,-0.121002 0.044998,-0.182999m-8.436005,-6.664001l-1.839996,6.289001c-0.126999,0.440994 -0.645996,0.735001 -1.102005,0.735001l-9.492004,0c-7.203995,0 -8.953995,-5.567001 -7.203995,-13.874008c1.757996,-8.490997 5.240997,-13.744995 12.324997,-14.276993c9.686005,-0.729004 11.667999,6.110001 9.320007,13.972992l-2.007004,7.154007z" fill="#FFFFFF"/>
 </g>
</svg>