<svg width="233" height="240" xmlns="http://www.w3.org/2000/svg" xmlns:svg="http://www.w3.org/2000/svg" xmlns:xlink="http://www.w3.org/1999/xlink">
 <g>
  <title>Layer 1</title>
  <g id="svg_1">
   <path fill="#030303" d="m117,232.199997c-54.700001,0 -99.200001,-44.900009 -99.200001,-100c0,-55.200005 44.5,-99.999996 99.200001,-99.999996c54.699997,0 99.199982,44.899998 99.199982,99.999996c0.000015,55.100006 -44.499985,100 -99.199982,100zm0,-195.099987c-51.900002,0 -94.200001,42.599987 -94.200001,94.999996c0,52.400009 42.300014,95 94.200001,95c51.899994,0 94.199982,-42.599991 94.199982,-95c0.000015,-52.300003 -42.199982,-94.999996 -94.199982,-94.999996z" id="svg_2"/>
   <g id="svg_3">
    <defs>
     <path id="SVGID_1_" d="m172.800003,54.099998l0,-0.299999l5.600006,-28.199999c0,0 -12.5,-28.8 -54.500008,-25.4c-42,3.5 -47.400002,13.3 -54.200005,24.8l4.099991,18.5l-7.799988,5c0,0 -2.799999,-8.5 -7.200008,-8.799999c0,0 6.599995,-9.400002 1.900009,-16c-4.700001,-6.6 -29.800001,-6 -39.5,27.299999c0,0 -1.300001,-10 -5.300001,-10s-19.1,5.299999 -15,21c4.1,15.699997 18.2,20.400002 22.89999,22.300003c0,0 2.20001,2.799995 1.300011,6.599998c-0.5,2 -11.900001,37.099998 -2.4,69.599998c7.099989,24.300003 29.799988,45.399994 29.799988,45.399994c17.299999,16.5 40.700008,26.700012 66.400013,26.700012c53.400002,0 96.699989,-43.700012 96.699989,-97.5c-0.299988,-33.800003 -17.099991,-63.400009 -42.799988,-81.000008z"/>
    </defs>
    <clipPath id="SVGID_2_">
     <use xlink:href="#SVGID_1_" id="svg_4" y="-2.800001" x="-1.600001"/>
    </clipPath>
    <g clip-path="url(#SVGID_2_)" id="svg_5">
     <path fill="#F4CF8C" d="m229.199997,277.300018c0,0 1.600006,21.899994 -4.300003,26.299988c0,0 -1.199997,8.800018 -9.699997,9.100006c0,0 -1.899994,5 -10.600006,2.5c-8.799988,-2.5 -16.199997,-28.100006 -16.199997,-28.100006s26.300003,-22.600006 40.800003,-9.799988z" id="svg_7"/>
     <path fill="#070707" d="m151.099991,167.699997c0,0 70.300003,11.300003 78,109.600021c0,0 -13.100006,8.299988 -26.800003,8.899994c0.100006,0 1.300003,-75.600021 -51.199997,-118.500015z" id="svg_8"/>
     <g id="svg_9">
      <path fill="#DD1F2D" d="m220.299988,234c-3.800003,1.899994 -12,5.100006 -24.600006,6.399994c0.400009,1.600006 0.900009,3.200012 1.200012,4.800003c5,-0.800003 14.099991,-2.599991 24.799988,-6.899994c-0.399994,-1.400009 -0.899994,-2.900009 -1.399994,-4.300003z" id="svg_10"/>
      <path fill="#DD1F2D" d="m192.199997,229.199997c0.5,1.600006 1.100006,3.199997 1.600006,4.699997c4.599991,-0.5 15,-1.899994 24.099991,-6.099991c-0.599991,-1.5 -1.300003,-3 -2,-4.5c-3.300003,1.599991 -10.800003,4.399994 -23.699997,5.899994z" id="svg_11"/>
      <path fill="#DD1F2D" d="m229.199997,277.300018c-0.699997,-9 -1.899994,-17.299988 -3.600006,-24.900009c-5.299988,3.299988 -13.799988,7.300003 -25.399994,8.900009c2.300003,14.899994 2.199997,24.899994 2.199997,24.899994c13.699997,-0.600006 26.800003,-8.899994 26.800003,-8.899994z" id="svg_12"/>
     </g>
     <g id="svg_13">
      <g id="svg_14">
       <circle fill="#F4CF8C" cx="78.699999" cy="93.299999" r="15.1" id="svg_15"/>
       <circle fill="#F4CF8C" cx="78.699999" cy="93.299999" r="15.1" id="svg_16"/>
       <path fill="#F4CF8C" d="m63.599991,93.300003c0,0.5 0,0.899994 0.099998,1.399994c1.099998,-0.5 2.200012,-1 3.400009,-1.800011c7.099998,-4.599983 7.400002,-10 5.800003,-13.5c-5.5,2.300011 -9.300011,7.600014 -9.300011,13.900017z" id="svg_17"/>
       <circle fill="#F4CF8C" cx="70.899999" cy="93.299999" r="7.3" id="svg_18"/>
       <g id="svg_19">
        <path fill="#D8AF6F" d="m70.900002,86c-0.300003,0 -0.599998,0 -0.900002,0.099998c2.800003,0.400002 5,3.5 5,7.200005c0,3.699997 -2.199997,6.799995 -5,7.199997c0.300003,0 0.599998,0.099998 0.900002,0.099998c4,0 7.299995,-3.299995 7.299995,-7.300011c0,-4 -3.299995,-7.299988 -7.299995,-7.299988z" id="svg_20"/>
        <path fill="#F4CF8C" d="m70,86.099998c-0.199997,0 -0.5,-0.099998 -0.699997,-0.099998c-3.200005,0 -5.700005,3.300003 -5.700005,7.300003c0,-3.700005 2.800003,-6.800003 6.400002,-7.200005z" id="svg_21"/>
        <path fill="#F4CF8C" d="m63.599991,93.300003c0,4 2.600006,7.299995 5.700012,7.299995c0.199997,0 0.5,0 0.699997,-0.100006c-3.599998,-0.399994 -6.400002,-3.499992 -6.400002,-7.199989l-0.000008,0z" id="svg_22"/>
       </g>
      </g>
      <g id="svg_23">
       <circle fill="#F4CF8C" cx="166.899999" cy="93.299999" r="15.1" id="svg_24"/>
       <circle fill="#F4CF8C" cx="166.899999" cy="93.299999" r="15.1" id="svg_25"/>
       <circle fill="#F4CF8C" cx="174.699999" cy="93.299999" r="7.3" id="svg_26"/>
       <g id="svg_27">
        <path fill="#D8AF6F" d="m170.5,93.300003c0,-3.700005 2.199997,-6.800011 5,-7.200005c-0.300003,0 -0.600006,-0.100006 -0.899994,-0.100006c-4,0 -7.300003,3.300011 -7.300003,7.300011c0,4 3.300003,7.299995 7.300003,7.299995c0.299988,0 0.599991,0 0.899994,-0.100006c-2.800003,-0.399994 -5,-3.499992 -5,-7.199989z" id="svg_28"/>
        <path fill="#F4CF8C" d="m181.899994,93.300003c0,-4 -2.600006,-7.300011 -5.699997,-7.300011c-0.199997,0 -0.5,0 -0.699997,0.100006c3.599991,0.400002 6.399994,3.5 6.399994,7.200005z" id="svg_29"/>
        <path fill="#F4CF8C" d="m175.5,100.5c0.199997,0 0.5,0.099998 0.699997,0.099998c3.199997,0 5.699997,-3.299995 5.699997,-7.299995c0,3.699997 -2.800003,6.799995 -6.399994,7.199997z" id="svg_30"/>
       </g>
      </g>
     </g>
     <g id="svg_31">
      <path fill="#F4CF8C" d="m36.599998,102.899986c0,0 14.400002,1.900017 12.5,-12.5c0,0 5,7.800011 16.200005,0.600006c11.199997,-7.200005 5.300011,-16.600006 2.199997,-16.900002c-3.099998,-0.299988 -7.5,-3.799988 -18.400002,7.5l-6.299999,-14.399994l7.200001,-9.400005c0,0 1,13.499996 11.400002,9.700001c10.400002,-3.799992 2.599998,-26.899994 -6.700001,-26.899994c-9.400002,0 -16.900002,9.700001 -16.900002,9.700001s3.100002,-8.700001 16.900002,-15.899998c0,0 5.299999,-3.100002 2.200001,-10.900002c-3.100002,-7.8 -32.800001,-2.200001 -37.500002,35.900002c0,0 -5.299999,-5 -4.099999,-12.800003c1.3,-7.800007 -15.3,-5.599998 -12.2,11.199993c3.1,16.899998 19.4,20.300007 19.4,20.300007s5.5,8.899994 1.6,19.099991c0,0.099998 6.199999,7.900009 12.499998,5.699997z" id="svg_32"/>
      <g id="svg_33">
       <path fill="#F4CF8C" d="m65.300003,91.099998c11.199997,-7.199997 5.300011,-16.599998 2.199997,-16.900002c-1.899986,-0.199997 -4.299999,-1.599998 -8.400002,0l3.700001,7.599991c0,0 -0.799999,10.800011 -12.899998,8.100014c0,0 -0.100002,0.400002 -0.400002,1.099998c1.299999,1.599998 6.400002,6.099998 15.800003,0.099998z" id="svg_34"/>
       <path fill="#F4CF8C" d="m49.200001,91.5c-1.900009,3.400002 -8.400002,9.800003 -24,1.800003c-0.300001,1.399994 -0.6,2.699997 -1.1,4c0,0 6.199999,7.799995 12.499998,5.599998c0,-0.000015 13.600002,1.799995 12.600002,-11.400002z" id="svg_35"/>
      </g>
      <path fill="#F4CF8C" d="m50,57.900002c0,0 1,13.5 11.39999,9.699997c4.300007,-1.599998 5.500011,-6.299999 4.800007,-11.5c-2.600006,2.700001 -10.699997,9.5 -13.800007,-5l-14.39999,16.799988l-11.4,6.600006l14.1,-3.5l8.200001,10.700005l-6.300003,-14.400009l7.400002,-9.399986z" id="svg_36"/>
      <path fill="#F4CF8C" d="m40.200001,46.400002c2.299999,-3.200001 6.700001,-7.800003 14.5,-11.900002c0,0 5.299999,-3.1 2.200001,-10.9c-0.100002,-0.1 -0.100002,-0.300001 -0.200001,-0.4c-0.700001,2.4 -2.200001,5.199999 -5,7.199999c-5.799999,4.000002 -26.5,18.4 -19.900002,40.1c-0.099998,-0.100014 -2.699999,-13.5 8.400002,-24.099998z" id="svg_37"/>
      <path fill="#F4CF8C" d="m19.1,59.200001c-1.1,-1.200001 -4.8,-5.799999 -3.8,-12.5c0.5,-3.100002 -1.8,-4.600002 -4.5,-4.299999c-0.5,8.399998 0.7,25.400002 17.2,30.299995c-0.1,0 -6.299999,-3 -8.9,-13.499996z" id="svg_38"/>
     </g>
     <path fill="#070707" d="m24.1,97.300003l12.499998,5.599983c0,0 -11.299999,61.900017 47.500015,64.400017c0,0 0.399986,39.799988 -35.800014,39.199997c-0.099998,0 -47.999999,-38.100006 -24.199999,-109.200012l0,0.000015z" id="svg_39"/>
     <path fill="#DD1F2D" d="m39,136.599991c-0.200001,-0.600006 -0.400009,-1.100006 -0.5,-1.699997c0,0 0,0 0,0c-2.799999,1.399994 -10.200001,4.699997 -21,4.599991c0,1.400009 0.1,2.700012 0.200001,4.100006c5.4,0 14.299999,-0.699997 22,-4.899994c0,0 0,0 0,0c-0.200001,-0.600006 -0.400002,-1.200012 -0.600002,-1.800003c0,-0.199997 0,-0.199997 -0.099998,-0.300003z" id="svg_40"/>
     <path fill="#DD1F2D" d="m43,145.5c-0.299999,-0.5 -0.60001,-1 -0.900009,-1.600006c0,0 0,0 0,0c-3.200001,1.5 -12.099991,5.100006 -23.799992,5.200012c0.200001,1.5 0.400002,3 0.700001,4.5c6.4,0 15.799999,-1.100006 25,-6.400009c0,0 0,0 0,0c-0.400002,-0.600006 -0.700001,-1.100006 -1,-1.699997c0,0 0,0 0,0z" id="svg_41"/>
     <path fill="#DD1F2D" d="m24.1,97.300003c-3.4,9.299995 -4.800001,17.799995 -5.9,25.799995c5.9,1.099998 11.9,1.299988 17.799999,-2.5c-0.700001,-10 0.599998,-17.700012 0.599998,-17.700012l-12.499998,-5.599983z" id="svg_42"/>
     <path fill="#070707" d="m158,165.699997l-35.199997,0l-35.300003,0c-75,33 -57.6,157.200027 -57.6,157.200027l93.299997,0l0,-56.800018l5.199997,56.800018l87.199997,0c0,0.099976 17.400009,-124.200027 -57.599991,-157.200027z" id="svg_51"/>
     <path fill="#F4CF8C" d="m188.299988,287c0,0 7.5,25.600006 16.199997,28.100006c8.800003,2.5 10.600006,-2.5 10.600006,-2.5c2.5,-0.100006 4.300003,-0.899994 5.699997,-2c0.600006,-9 1,-22.200012 0,-37.100006c-14.399994,-1.899994 -32.5,13.5 -32.5,13.5z" id="svg_52"/>
     <path fill="#931926" d="m221.199997,281.400024c-1.100006,-26.700027 -6.399994,-61.100006 -24.399994,-86.800018c-21.5,-23 -45.700012,-26.899994 -45.700012,-26.899994c52.5,42.899979 51.300003,118.5 51.300003,118.5c7,-0.299988 13.800003,-2.600006 18.800003,-4.799988z" id="svg_53"/>
     <path fill="#DD1F2D" d="m33,243.199997c-0.200001,1.100006 -0.5,2.300003 -0.700001,3.399994c20.700001,-7.599991 53.500004,-12.599991 90.500004,-12.599991c36.899994,0 69.699982,4.899994 90.499985,12.599991c-0.199997,-1.099991 -0.5,-2.299988 -0.699997,-3.399994c-20.800003,-7.5 -53.300003,-12.300003 -89.799988,-12.300003c-36.600006,0 -69.000004,4.800003 -89.800003,12.300003z" id="svg_54"/>
     <path fill="#DD1F2D" d="m37.099998,227.5c-0.299999,1 -0.599998,2.100006 -0.899998,3.100006c20.799999,-6.900009 51.900013,-11.200012 86.600002,-11.200012c34.699997,0 65.799988,4.400009 86.599991,11.200012c-0.300003,-1 -0.600006,-2.100006 -0.900009,-3.100006c-20.799988,-6.699997 -51.5,-10.899994 -85.699982,-10.899994c-34.200005,-0.000015 -64.900002,4.199997 -85.700005,10.899994z" id="svg_55"/>
     <path fill="#DD1F2D" d="m66.300003,179.399994c-16.100002,20.699997 -14.300003,45.899994 -14.300003,45.899994l4.400002,-2c-1.400002,-22 8.700012,-39.399994 15,-48c-1.900002,1.300003 -3.5,2.700012 -5.099998,4.100006z" id="svg_56"/>
     <path fill="#DD1F2D" d="m174.299988,175.300003c6.300003,8.600006 16.300003,26.100006 15,48l4.399994,2c0,0 1.700012,-25.199997 -14.299988,-45.899994c-1.699997,-1.400009 -3.399994,-2.800018 -5.100006,-4.100006z" id="svg_57"/>
     <path fill="#DD1F2D" d="m123.199997,266.100006l5.199997,56.799988l87.199997,0c0,0 5.400009,-38.199982 -2.599991,-77.800003l-4.5,-1.400009c7.299988,20.000031 3.899994,74.000031 3.899994,74.000031l-79.300003,0l-7.499992,-83.900024l-6.099998,0l-0.800003,83.900024l-84.700008,0c-3.899998,-38 2.200001,-73.700027 2.200001,-73.700027l-3.599991,1c-7.999998,39.700027 -2.700008,78.000015 -2.700008,78.000015l93.300022,0l0,-56.899994l-0.000015,0z" id="svg_58"/>
     <path fill="#F4CF8C" d="m161.699997,163.199997c0,0 -15,13.699997 -39.599983,13.699997c-29.300011,0 -38.400017,-13.699997 -38.400017,-13.699997l-5.199989,-95.5l88.399986,0l-5.199997,95.5z" id="svg_59"/>
     <path fill="#F4CF8C" d="m161.699997,163.199997c0,0 -15,13.699997 -39.599983,13.699997c-29.300011,0 -38.400017,-13.699997 -38.400017,-13.699997l-5.199989,-95.5l88.399986,0l-5.199997,95.5z" id="svg_60"/>
     <path fill="#F4CF8C" d="m161.699997,163.199997c0,0 -15,13.699997 -39.599983,13.699997c-29.300011,0 -38.400017,-13.699997 -38.400017,-13.699997l-5.199989,-95.5l88.399986,0l-5.199997,95.5z" id="svg_61"/>
     <path fill="#B27D30" d="m134,84l2.199997,-2.800003c0,0 7.900009,-0.399994 20.100006,6.200005c0,0 -8.800003,-10.900002 -22.100006,-7.200005l0.400009,-2.399994l-3.800003,6.199997c0,0 1.399994,8.199997 -0.100006,14.199997l-15.899986,0c-1.5,-6 -0.099998,-14.199997 -0.099998,-14.199997l-3.800003,-6.199997l0.400002,2.399994c-13.300003,-3.699997 -22.099998,7.200005 -22.099998,7.200005c12.199989,-6.599998 20.199989,-6.200005 20.199989,-6.200005l2.199997,2.800003c-4.299995,8.5 -14.299995,9.199997 -14.299995,9.199997c10.5,1.099991 14.399994,-5.5 14.399994,-5.5c-0.599998,5.199989 0.5,12 0.5,12l10.600006,7.400002l0.099998,0l0,0l10.599998,-7.400002c0,0 1.099991,-6.800011 0.5,-12c0,0 3.899994,6.599991 14.399994,5.5c-0.100006,0 -10.199997,-0.699997 -14.399994,-9.199997z" id="svg_62"/>
     <ellipse fill="#070707" cx="122.799999" cy="114.899999" rx="14.5" ry="8.7" id="svg_63"/>
     <path fill="#DD1F2D" d="m122.800003,124c3.300011,0 6.299988,-1.099998 8.699997,-2.199997c-1.700012,-1.800003 -4.999992,-3.100006 -8.699997,-3.100006c-3.800003,0 -7,1.200005 -8.699989,3.100006c2.399986,1.099983 5.399986,2.199997 8.699989,2.199997z" id="svg_64"/>
     <path fill="#FFFFFF" d="m122.800003,106.199997c-8,0 -14.5,3.900002 -14.5,8.699989c0,0.200012 0,0.5 0.099998,0.700012l28.899986,0c0,-0.200012 0.100006,-0.5 0.100006,-0.700012c-0.100006,-4.799988 -6.600006,-8.699989 -14.599991,-8.699989z" id="svg_65"/>
     <path fill="#C98C2B" d="m122.800003,129.199997c-2.900002,0 -5.699989,-0.5 -8,-1.399994c1.800011,2.399994 4.699997,3.899994 8,3.899994c3.199997,0 6.099991,-1.5 8,-3.899994c-2.400009,0.899994 -5.099991,1.399994 -8,1.399994z" id="svg_66"/>
     <path fill="#C98C2B" d="m122.800003,155.099991c-5,0 -9.699989,-0.899994 -13.600006,-2.399994c3.100006,4.099991 8,6.699997 13.600006,6.699997c5.599991,0 10.5,-2.600006 13.599991,-6.699997c-3.899994,1.5 -8.599991,2.399994 -13.599991,2.399994z" id="svg_67"/>
     <polygon fill="#CEA063" points="79.4 83.4 166.1 83.4 166.9 67.7 78.6 67.7" id="svg_68"/>
     <path fill="#070707" d="m167.099991,67.699997l7.800003,-44.799997c0,0 -11.699997,-22.9 -51.899994,-22.9c-48.800003,0 -52.400002,22.9 -52.400002,22.9l7.800003,44.799997l88.699989,0z" id="svg_69"/>
     <polygon fill="#DD1F2D" points="75.1 48.5 78.4 67.7 167.1 67.7 170.5 48.5" id="svg_70"/>
     <polygon fill="#070707" points="180.5 78.4 65 78.4 61.4 67.7 184.1 67.7" id="svg_71"/>
     <g id="svg_72">
      <circle fill="#070707" cx="122.799999" cy="54.599999" r="14.3" id="svg_73"/>
      <path fill="#DD1F2D" d="m122.800003,67.099998c-6.900002,0 -12.5,-5.599998 -12.5,-12.5c0,-6.899998 5.599998,-12.5 12.5,-12.5c6.899994,0 12.5,5.600002 12.5,12.5c-0.000015,6.900002 -5.600006,12.5 -12.5,12.5zm0,-23.399998c-6,0 -10.900002,4.899998 -10.900002,10.899998c0,6 4.900002,10.899994 10.900002,10.899994c6,0 10.899994,-4.899994 10.899994,-10.899994c0,-6 -4.900009,-10.899998 -10.899994,-10.899998z" id="svg_74"/>
      <path fill="#DD1F2D" d="m122.800003,63.700001c-5,0 -9.100006,-4.100002 -9.100006,-9c0,-5 4.100006,-9.100002 9.100006,-9.100002c5.000008,0 9.099991,4.100002 9.099991,9.100002c-0.100006,4.899998 -4.099991,9 -9.099991,9zm0,-17c-4.300003,0 -7.900002,3.5 -7.900002,7.899998c0,4.300003 3.5,7.900002 7.900002,7.900002c4.299995,0 7.899994,-3.5 7.899994,-7.900002c-0.100006,-4.299999 -3.599998,-7.899998 -7.899994,-7.899998z" id="svg_75"/>
      <polygon fill="#DD1F2D" points="125 51.4 129.1 48.5 126 52.5 130.9 51.2 126.6 53.8 131.6 54.4 126.6 55.2 131.1 57.6 126.1 56.6 129.5 60.4 125.2 57.6 126.9 62.4 123.9 58.3 123.8 63.4 122.5 58.5 120.6 63.2 121.1 58.1 117.6 61.8 120 57.3 115.4 59.5 119.2 56.1 114.1 56.5 118.9 54.7 114 53.2 119.1 53.3 115.1 50.2 119.8 52.1 117.2 47.7 120.9 51.2 120.1 46.2 122.3 50.7 123.3 45.8 123.7 50.8 126.5 46.6" id="svg_76"/>
      <path fill="#070707" d="m125.5,54.599998c0,1.5 -1.199997,2.700001 -2.699997,2.700001c-1.5,0 -2.700005,-1.200001 -2.700005,-2.700001c0,-1.5 1.200005,-2.699997 2.700005,-2.699997c1.5,0 2.699997,1.199997 2.699997,2.699997z" id="svg_77"/>
     </g>
     <path fill="#DD1F2D" d="m122.099998,176.800003c-29.299995,0 -38.299995,-13.600006 -38.400002,-13.699997l1.099991,19.399994c0,0 8.800011,13.300003 37.300011,13.300003c23.999992,0 38.599983,-13.300003 38.599983,-13.300003l1.100006,-19.399994c-0.099991,0.099991 -15,13.699997 -39.699989,13.699997z" id="svg_78"/>
     <path fill="#070707" d="m122.800003,195.599991c0.699997,-2.5 1.099998,-5.800003 1.099998,-9.300003s-0.400002,-6.800003 -1.099998,-9.300003c-0.699989,2.5 -1.099991,5.800003 -1.099991,9.300003s0.299988,6.700012 1.099991,9.300003z" id="svg_79"/>
     <circle fill="#931926" cx="129.699999" cy="186.899999" r="2.7" id="svg_80"/>
     <circle fill="#FFFFFF" cx="129.099999" cy="186.299999" r="2.7" id="svg_81"/>
     <path fill="#FCB017" d="m132.199997,213l-19,0c-3,0 -5.5,2.399994 -5.5,5.5l0,13.5c0,3 2.400017,5.5 5.5,5.5l19,0c3,0 5.5,-2.399994 5.5,-5.5l0,-13.5c0,-3.100006 -2.400009,-5.5 -5.5,-5.5zm-1.400009,7.5l0,9.300003c0,0.599991 -0.399994,1 -1,1l-13.999985,0c-0.600006,0 -1,-0.400009 -1,-1l0,-9.300003c0,-0.600006 0.399994,-1 1,-1l13.999985,0c0.5,0 1,0.5 1,1z" id="svg_82"/>
     <polygon fill="#C98C2B" points="112.2 99.7 122.7 107.1 122.8 107.1 122.8 107.1 133.3 99.7" id="svg_83"/>
     <g id="svg_84">
      <path fill="#4E1D0F" d="m122.800003,105.5c0,0 -8.800003,-10.5 -29.600006,-5.400002c-20.699997,5.200005 -31.399998,30.900002 -31.399998,30.900002s11.300014,8.399994 29.000004,6.199997c17.699997,-2.300003 32.099998,-21.199997 32,-31.699997z" id="svg_85"/>
      <path fill="#4E1D0F" d="m122.800003,105.5c0,0 8.799988,-10.5 29.599991,-5.400002c20.699997,5.200005 31.400009,30.900002 31.400009,30.900002s-11.300003,8.399994 -29,6.199997c-17.700012,-2.300003 -32.100006,-21.199997 -32,-31.699997z" id="svg_86"/>
     </g>
     <polygon fill="#DD1F2D" points="165.8 195.7 167.6 195.7 164.4 199.7 161.1 195.7 163 195.7 163 193.9 156 193.9 156 195.7 158.8 195.7 163.4 201.4 163.4 205 160.7 205 160.7 206.8 168 206.8 168 205 165.3 205 165.3 201.4 170 195.7 172.7 195.7 172.7 193.9 165.8 193.9" id="svg_87"/>
    </g>
   </g>
  </g>
 </g>
</svg>